<?xml version="1.0" standalone="no"?><!DOCTYPE svg PUBLIC "-//W3C//DTD SVG 1.1//EN" "http://www.w3.org/Graphics/SVG/1.1/DTD/svg11.dtd" ><svg xmlns="http://www.w3.org/2000/svg"><metadata></metadata><defs><font id="SentyTEA 新蒂下午茶体 Platinum:Version 1.00" horiz-adv-x="2100"><font-face font-family="SentyTEA 新蒂下午茶体" font-weight="400" font-stretch="normal" units-per-em="2048" panose-1="3 0 6 0 0 0 0 0 0 0" ascent="2459" descent="-1051" x-height="0" bbox="-21 -750 1992 1806" underline-thickness="150" underline-position="-217" unicode-range="U+0028-ff1f" /><missing-glyph horiz-adv-x="1384" d="M268 -115 l0 1262 l909 0 l0 -1262 l-909 0 ZM338 -45 l768 0 l0 1122 l-768 0 l0 -1122 Z" /><glyph glyph-name="parenleft" unicode="(" d="M296 1260 l20 0 q39 -6 39 -39 l0 -20 q-118 0 -177 -532 l0 -19 q33 -453 354 -453 q0 -59 -177 -59 q-295 95 -295 394 l0 98 q0 384 236 630 Z" /><glyph glyph-name="parenright" unicode=")" d="M237 1348 q285 16 381 -805 l4 -77 q-67 -366 -288 -379 l-258 -14 l-3 52 q435 87 415 437 q-30 536 -250 760 l-1 26 Z" /><glyph glyph-name="zero" unicode="0" d="M591 1221 q85 0 178 -158 q315 -90 315 -433 q0 -382 -512 -689 q-35 -20 -79 -20 l-157 0 q-276 0 -276 414 q0 597 453 866 q34 20 78 20 ZM158 276 q36 -256 217 -256 l98 0 q220 0 493 472 l19 118 l0 99 q-81 295 -256 295 q0 -20 -19 -20 q0 40 -79 40 l0 19 l79 20 q-47 86 -99 99 q-218 0 -394 -493 q-59 -142 -59 -393 Z" /><glyph glyph-name="three" unicode="3" d="M178 1180 l374 0 q295 -19 295 -118 l0 -19 q0 -143 -492 -414 l0 -20 q512 0 512 -295 q0 -293 -748 -453 q-38 20 -59 20 l0 20 q133 105 531 256 q158 103 158 137 l0 79 q0 118 -571 177 l0 59 q32 60 532 355 l59 79 q-83 59 -355 78 q-139 -19 -236 -19 l0 78 Z" /><glyph glyph-name="five" unicode="5" d="M476 1271 l38 0 q39 -6 39 -39 l0 -18 l-20 -97 q162 39 421 39 l192 0 q27 0 57 -57 l-95 -20 q-128 0 -594 -19 l-76 -249 q593 -139 593 -517 l0 -115 q0 -247 -383 -364 q-24 -19 -134 -19 l-76 0 q-214 0 -441 287 l38 19 q115 -152 288 -152 l172 0 q421 39 421 344 q0 334 -575 441 l0 38 l135 479 l0 19 Z" /><glyph glyph-name="seven" unicode="7" d="M906 1339 q39 -20 60 -20 l0 -79 q0 -58 -256 -571 q-178 -340 -178 -708 l0 -59 l20 0 l0 39 q39 -6 39 -39 q0 -102 -59 -118 l-39 0 q-31 0 -79 78 l0 118 q0 498 473 1241 l0 39 q-177 0 -768 -59 l0 -138 l-20 0 q-39 0 -39 40 l0 157 q714 79 846 79 Z" /><glyph glyph-name="nine" unicode="9" d="M532 1398 l59 0 q237 0 237 -355 l-59 0 q0 232 -178 276 l-59 0 q-253 0 -393 -551 l0 -118 q32 -79 138 -79 l39 0 q272 0 512 217 l59 295 l39 0 l0 -20 q0 -104 20 -177 q-118 -1083 -197 -1083 l-20 0 q-39 0 -39 59 q0 205 138 847 l-20 0 q-268 -217 -512 -217 l-19 0 q-155 0 -217 118 l0 197 q148 591 472 591 Z" /><glyph glyph-name="question" unicode="?" d="M414 1457 q189 0 237 -295 l0 -99 q0 -127 -296 -394 q40 -125 40 -157 l-59 -39 l-40 0 q-98 50 -98 157 l0 118 q315 276 315 374 l0 79 q-15 157 -138 157 q-145 0 -236 -177 q19 -34 19 -78 l-39 0 q-39 0 -59 118 q0 187 354 236 ZM296 374 l79 0 q28 0 59 -59 l0 -39 q0 -111 -98 -138 q-99 27 -99 138 q14 98 59 98 Z" /><glyph glyph-name="A" unicode="a" d="M1026 1665 q34 2 35 -48 q-16 -476 -11 -604 l20 -570 l333 45 l2 -49 q-63 -3 -331 -113 l3 -67 q9 -243 173 -648 l2 -34 q1 -33 -49 -35 q-166 -5 -260 712 l-1 17 l-17 -1 q-210 -74 -333 -79 l-34 -1 q-23 -1 -51 48 l-1 17 q-1 38 299 95 q132 52 131 71 l-1 35 q-15 422 4 838 l-1 17 l-17 -1 q-432 -1003 -658 -1282 l-67 -2 q-34 -1 -35 33 q110 77 239 344 l609 1262 l17 0 Z" /><glyph glyph-name="D" unicode="d" d="M787 1403 q0 -40 195 -88 q425 -249 425 -780 q0 -237 -390 -513 q-271 -160 -477 -160 l-107 0 q-301 49 -301 266 l18 106 l17 0 q0 -230 301 -230 q54 18 54 36 q0 554 177 1222 q-14 0 -106 18 q-119 0 -320 -36 l18 -35 q0 -36 -53 -36 q-71 27 -71 53 l0 36 q0 100 620 141 ZM787 1244 q-141 -745 -141 -1187 l0 -17 l18 0 q620 216 620 584 q-114 620 -497 620 Z" /><glyph glyph-name="M" unicode="m" d="M1328 1470 q247 0 247 -957 l0 -461 q0 -92 -88 -176 q-96 0 -106 372 l0 620 q0 284 -71 461 q-251 -116 -496 -904 q-41 -53 -53 -53 l-53 0 q-86 0 -124 814 q-29 107 -54 107 q-301 -792 -301 -1329 l-35 0 q-53 18 -53 106 l0 36 q0 451 265 1205 q88 142 106 142 l72 0 q127 0 177 -744 l18 0 q255 761 549 761 Z" /><glyph glyph-name="T" unicode="t" d="M847 1448 l17 0 q0 -36 -53 -36 l0 -35 q113 35 426 35 l70 -17 l0 -36 q0 -63 -549 -88 q-106 -559 -106 -940 l0 -301 q-18 -53 -106 -53 q-37 7 -71 88 q0 482 195 1188 l-18 0 q-293 -72 -478 -72 l-89 0 q-92 0 -106 54 l0 36 q5 35 35 35 l18 0 q0 -35 18 -35 q726 73 726 159 q31 18 71 18 Z" /><glyph glyph-name="V" unicode="v" d="M1025 1364 l88 0 q89 -45 89 -142 l0 -53 q-28 -470 -514 -1134 q-28 0 -71 -36 l-53 0 q-272 0 -425 1099 q-18 0 -18 178 q34 17 53 17 q106 -155 266 -939 q96 -176 124 -177 q202 173 461 832 q35 213 35 231 q-26 0 -53 71 q18 34 18 53 Z" /><glyph glyph-name="X" unicode="x" d="M1059 1470 l36 0 q35 -5 35 -35 q0 -57 -319 -726 l0 -36 q142 -291 301 -460 q18 30 18 70 l35 0 l0 -17 q0 -11 18 -231 l-71 -36 q-163 0 -407 479 l-36 0 q-319 -589 -425 -673 l-18 0 q-106 0 -106 106 q0 95 337 567 q124 179 124 249 l-302 459 l-88 72 l-18 0 l0 -89 l-35 0 l-18 89 l0 53 q5 35 35 35 l71 0 q179 0 461 -460 l18 0 q184 368 354 584 Z" /><glyph glyph-name="a" unicode="a" d="M533 841 q134 -38 134 -119 l-15 -89 q-26 0 -45 134 l-74 14 q-235 0 -358 -447 l0 -74 q0 -119 165 -119 q190 0 372 164 q-30 170 -30 238 l0 60 q0 21 45 45 l14 0 q120 -85 120 -164 q0 -63 -16 -164 q57 -146 135 -239 q-22 -59 -45 -59 l-15 0 q-121 0 -164 193 l-15 0 q-197 -148 -328 -148 l-134 0 q-160 0 -193 148 l0 75 q0 334 343 521 q59 30 104 30 ZM786 543 l0 -30 q15 -26 15 -59 l16 0 l0 30 q-16 26 -16 59 l-15 0 Z" /><glyph glyph-name="c" unicode="c" d="M528 869 q134 -23 134 -89 q-16 -27 -16 -61 l-29 0 q0 75 -29 75 l-15 0 q-275 0 -374 -508 q23 -118 120 -118 l120 0 q136 0 372 163 l30 0 q0 -217 -463 -298 l-29 0 q-216 0 -254 194 l0 75 q0 389 433 567 Z" /><glyph glyph-name="e" unicode="e" d="M656 867 q127 4 131 -122 q4 -151 -513 -314 l-79 -1 l3 -143 q67 -140 398 -132 l205 5 q15 1 125 36 l1 -47 q-235 -133 -374 -136 q-395 -11 -481 255 l0 32 q-10 368 459 563 l125 4 ZM224 509 l17 1 q193 25 451 216 l-1 47 l-80 14 l-16 0 q-190 -5 -371 -278 Z" /><glyph glyph-name="l" unicode="l" d="M204 1258 l18 -89 l0 -762 q0 -265 71 -265 q21 0 194 71 l0 -36 q-94 -160 -212 -160 q-101 0 -159 213 l0 230 q0 798 88 798 Z" /><glyph glyph-name="m" unicode="m" d="M541 829 q134 0 205 -393 l15 0 q170 378 316 378 l46 0 q143 -69 143 -615 l0 -94 q0 -116 -48 -126 l-47 0 q-48 10 -48 126 l0 425 q0 80 -30 189 l-33 0 q-108 -65 -299 -535 l-62 0 q-44 0 -80 362 q-18 0 -63 173 l-15 0 q-113 -133 -189 -599 q-51 -110 -79 -110 l-32 0 q-63 22 -63 141 l0 537 q0 116 47 126 q23 0 48 -48 q16 -300 16 -409 l15 0 q117 472 237 472 Z" /><glyph glyph-name="r" unicode="r" d="M542 861 q70 -26 70 -53 l0 -18 l-247 -160 q-71 -71 -106 -247 q35 -207 35 -302 l-53 -35 l-18 0 q-105 33 -89 319 q18 200 12 488 l53 0 l24 -205 q186 213 319 213 Z" /><glyph glyph-name="s" unicode="s" d="M723 923 q30 0 60 -61 l0 -39 l-20 0 q-48 39 -81 39 q-157 0 -443 -302 q502 -154 565 -202 l0 -60 q0 -197 -465 -263 l-100 0 q-109 0 -142 81 l0 20 q25 202 81 202 q0 -161 40 -161 q139 0 444 100 l0 40 q-544 120 -544 222 q0 210 504 384 l101 0 Z" /><glyph glyph-name="t" unicode="t" d="M482 1146 q33 -5 33 -33 l21 -297 q32 0 201 33 l108 4 q-326 -173 -326 -189 l0 -518 q0 -60 17 -150 q-17 -33 -17 -51 l-65 0 q-85 39 -85 251 l0 50 q0 300 34 385 l-17 0 q-126 -33 -234 -33 l-84 16 l0 50 q14 34 335 100 q28 382 79 382 Z" /><glyph glyph-name="u" unicode="u" d="M807 803 l48 0 l0 -208 q0 -200 16 -494 q-16 -31 -16 -49 l-31 0 q-64 0 -96 288 q15 27 15 64 l-31 0 q-181 -319 -351 -319 l-48 0 q-176 0 -208 239 l0 191 q11 256 64 256 l48 0 l-16 -112 l0 -239 q0 -240 144 -240 q150 0 383 351 q37 272 79 272 Z" /><glyph glyph-name="quotedblleft" unicode="&#x201c;" d="M316 1417 q177 -140 177 -255 l-39 -20 l-59 0 q-118 230 -118 256 l39 19 ZM60 1398 l39 0 q45 0 138 -295 l0 -40 l-39 0 q-79 0 -138 335 Z" /><glyph glyph-name="quotedblright" unicode="&#x201d;" d="M158 1496 l40 0 q0 -110 -40 -295 l-59 0 q-39 0 -39 39 q53 256 98 256 ZM414 1496 l40 0 l0 -157 l-40 -138 l-78 0 l0 39 q33 256 78 256 Z" /><glyph glyph-name="uni4E00" unicode="&#x4e00;" d="M1493 646 q153 -48 153 -87 l0 -35 q-144 -70 -1057 -157 l-51 0 l-89 18 l0 34 l76 0 q110 0 968 227 Z" /><glyph glyph-name="uni4E07" unicode="&#x4e07;" d="M1601 1368 l25 -36 l0 -12 q0 -66 -549 -86 q0 -15 -72 -24 l0 12 q-304 -60 -500 -85 q-23 13 -36 13 l0 49 q337 74 913 145 l24 -12 q54 25 195 36 ZM1115 1222 l12 0 q24 -3 24 -23 q-86 -159 -293 -902 q-48 -162 -72 -524 q12 -20 12 -61 l-37 -24 l-37 0 q-27 0 -36 60 q60 487 146 756 q224 718 281 718 ZM1419 724 q171 0 171 -317 q-77 -513 -122 -513 q-62 -108 -110 -108 q-146 58 -146 181 l0 25 q4 25 24 25 q16 0 110 -147 q115 0 194 585 q0 207 -146 207 q-340 -27 -353 -84 l-36 0 q0 146 414 146 Z" /><glyph glyph-name="uni4E0A" unicode="&#x4e0a;" d="M908 1156 l12 0 q46 0 60 -256 q0 -12 -12 -12 l12 -122 l0 -61 q126 38 294 49 q21 -13 48 -13 l73 13 l0 -61 q-55 -25 -389 -48 l-26 -26 q0 -115 -35 -243 l12 -25 q0 -23 -12 -23 l12 -86 l0 -73 q0 -17 -74 -74 q-36 13 -36 74 q2 49 24 49 l-12 25 l0 85 q0 107 37 303 q-13 22 -13 49 l0 61 q0 13 13 13 l-13 24 l0 256 l-12 73 q18 49 37 49 ZM1139 72 l25 -13 q21 14 48 13 l37 0 q66 0 183 -38 q12 0 37 12 q95 -31 122 -72 l0 -25 q0 -24 -74 -48 q-207 81 -353 97 l-61 -12 l-123 0 q-44 0 -109 -12 q-12 1 -12 13 q-183 -17 -208 -25 q-12 13 -146 24 l0 36 q0 50 634 50 Z" /><glyph glyph-name="uni4E0B" unicode="&#x4e0b;" d="M1680 1199 q65 -22 65 -40 l0 -44 q0 -35 -173 -35 l0 10 l11 21 l-22 2 q-180 18 -1177 -174 l-11 0 l-22 36 q23 26 292 89 q628 164 1037 135 ZM1097 976 l11 -1 q86 -22 86 -74 q0 -340 -11 -626 q11 -239 11 -497 q-5 -108 -76 -101 q-86 45 -86 149 l0 33 q0 194 32 192 l22 -14 l0 10 q22 780 44 872 q-17 1 -33 35 l0 22 ZM1312 458 q156 -16 260 -221 l0 -10 q-22 -63 -86 -58 q-28 4 -205 238 l0 21 q0 15 31 30 Z" /><glyph glyph-name="uni4E0D" unicode="&#x4e0d;" d="M1413 1202 l53 -5 q21 -6 21 -23 l0 -31 q-17 -19 -345 -50 l-629 -52 l-10 22 l0 10 q0 64 910 129 ZM1120 1064 l22 -33 q-117 -137 -535 -869 l105 104 l11 0 q-191 -358 -252 -352 l-20 2 q-18 3 -43 47 l0 10 q77 295 650 1067 q40 27 62 24 ZM1026 634 l32 -4 q73 -447 73 -824 q-16 -40 -32 -38 l-31 3 q-14 1 -32 34 l0 294 q0 145 -21 505 q11 19 11 30 ZM1203 678 l21 -3 q230 -198 367 -413 q73 -138 94 -251 q-15 -40 -32 -38 l-32 3 q-33 16 -104 242 q-121 202 -314 429 l0 31 Z" /><glyph glyph-name="uni4E16" unicode="&#x4e16;" d="M1039 1240 l38 0 q28 0 74 -186 q131 -99 131 -112 l0 -38 q0 -33 -168 -74 l0 -224 q-75 -83 -75 -93 l19 0 q294 74 336 74 l0 168 q0 27 55 56 q38 -6 38 -37 l0 -149 l279 74 l0 38 q-14 0 -111 18 l0 38 l18 0 q205 -14 205 -75 l0 -19 q0 -51 -391 -149 q0 -154 -131 -503 q38 -6 38 -37 l0 -19 q-12 -56 -150 -56 l-111 0 q-81 19 -131 19 q-30 -75 -130 -75 q-168 107 -168 466 q-406 -112 -466 -112 l-19 38 l0 18 q128 0 485 131 l0 298 q0 56 261 93 l0 19 l-168 0 q-97 0 -112 56 q6 37 37 37 q6 -37 38 -37 l18 0 l187 18 l0 19 q0 317 74 317 ZM1133 998 l0 -56 l37 0 q-19 36 -19 56 l-18 0 ZM797 699 q19 -127 19 -205 l0 -37 q169 37 186 37 l0 19 q-37 118 -37 261 q-168 -41 -168 -75 ZM834 364 q41 -373 112 -373 q25 0 93 93 l38 -19 l37 0 q166 0 261 448 l-19 0 q-522 -112 -522 -149 Z" /><glyph glyph-name="uni4E1C" unicode="&#x4e1c;" d="M984 1475 l12 0 q61 0 80 -46 l0 -34 q0 -60 -126 -296 l12 0 q263 56 421 56 q59 0 91 -56 l0 -11 l-34 -46 q-10 0 -91 12 q-502 -36 -502 -127 q-182 -375 -182 -467 l11 0 q187 69 331 103 q12 209 12 262 l34 23 q80 0 80 -217 l0 -34 l10 0 q127 12 127 34 q-12 22 -12 35 q12 0 12 11 q70 -24 79 -57 l0 -23 q0 -37 -216 -102 l0 -12 q22 -582 22 -843 q-22 -80 -91 -80 q-55 0 -228 147 l-11 0 l0 24 l205 -46 l0 11 q0 82 -11 764 l-12 0 l-308 -79 l-90 0 q-23 0 -47 68 q4 131 183 501 l-12 0 q-244 -46 -308 -46 l-10 23 l0 12 q35 41 387 115 q65 88 182 352 q-22 37 -22 57 l22 12 ZM1383 289 q296 -281 296 -501 q-15 -57 -79 -57 q-68 0 -137 284 l-102 263 l22 11 ZM779 209 l34 0 q23 -3 23 -22 q-227 -294 -227 -480 l-47 -33 l-34 0 q-17 0 -46 46 l0 23 q0 161 297 466 Z" /><glyph glyph-name="uni4E25" unicode="&#x4e25;" d="M1619 1661 l12 -24 l0 -24 q-225 -49 -255 -74 q-36 -125 -73 -426 q19 0 109 196 q53 0 98 120 q21 12 49 12 q0 -12 12 -11 q0 -163 -159 -328 q-15 -42 -146 -111 q0 -33 -24 -74 l366 74 l11 -24 l0 -24 q0 -46 -511 -134 q-206 1 -243 -317 q-49 -466 -62 -512 q0 -12 13 -12 l-13 -121 l0 -61 q0 -13 -11 -13 q0 -12 11 -12 q0 -41 -23 -206 q12 -48 12 -98 l0 -61 l-62 0 q-17 0 -36 36 l0 50 l12 73 q0 12 -12 12 q25 184 25 353 l11 0 l-11 24 q80 780 133 780 l0 12 q-12 1 -12 13 q-176 -12 -341 -74 q0 24 -36 24 l0 37 q0 45 512 121 q-26 110 -26 158 q21 394 50 477 q-332 -51 -403 -51 q-60 17 -60 37 l0 37 q473 39 584 110 q67 -12 98 -12 q224 48 401 48 ZM1047 1113 l0 -24 q0 -27 -12 -48 q12 -22 12 -50 l0 -109 q88 0 110 74 q82 214 121 571 l-12 0 q-181 0 -181 -86 q-38 -150 -38 -328 ZM596 1260 l13 0 q99 1 207 -343 l-24 -12 l-12 0 q-62 0 -196 305 q12 22 12 50 Z" /><glyph glyph-name="uni4E2A" unicode="&#x4e2a;" d="M1040 1582 q25 -11 38 -10 q-101 -172 -354 -708 l-219 -501 q-61 -168 -85 -279 q-44 -12 -50 -12 q0 12 -48 48 q171 416 585 1280 q85 182 133 182 ZM870 986 l49 1 q205 -24 451 -197 q47 -39 390 -207 l12 -62 l-36 -23 l-13 0 q-246 104 -669 390 q-201 21 -207 73 q3 25 23 25 ZM1028 864 l50 -24 l-12 -62 l0 -121 q0 -28 12 -49 q0 -12 -12 -13 l12 -83 l0 -86 q0 -281 12 -807 l12 -23 q-24 -122 -74 -122 q-97 49 -97 134 l0 11 l74 0 l0 148 l-13 146 l13 0 l-13 24 l0 135 q0 12 13 12 l-13 24 l0 12 q0 27 13 49 q-13 21 -13 49 l0 24 q0 12 13 12 l-13 24 q0 12 13 12 l-13 25 q0 13 13 13 l-13 23 l0 500 q24 14 36 13 Z" /><glyph glyph-name="uni4E2D" unicode="&#x4e2d;" d="M1177 1445 l49 0 q17 -189 17 -275 l0 -81 l275 0 q90 0 130 -81 q0 -135 -276 -245 l0 -15 l17 0 q89 15 129 17 q65 -26 65 -50 l0 -16 q0 -32 -32 -32 q-308 0 -308 -49 q0 -259 -17 -861 l17 -114 l-49 -32 l-48 0 q-33 0 -33 32 l0 16 q0 504 33 959 l-65 0 q-86 0 -278 -16 l0 32 q0 33 326 65 l17 33 l0 16 q0 86 15 276 l-15 0 q-198 0 -554 -114 q-15 -243 -15 -357 l0 -65 q0 -86 48 -260 l-48 -32 l-33 0 q-71 0 -97 291 q32 545 97 797 l66 0 l0 -178 l-18 -163 q321 130 569 130 l0 16 q16 177 16 308 l0 48 ZM1243 1041 l0 -293 q295 141 340 227 l0 33 q0 33 -32 33 l-308 0 Z" /><glyph glyph-name="uni4E3A" unicode="&#x4e3a;" d="M1138 1455 l26 0 q0 -17 117 -128 l0 -66 q0 -61 -143 -545 q262 91 403 91 q120 0 142 -181 l0 -65 q0 -330 -234 -752 q-99 -104 -246 -104 q-103 0 -103 104 q0 22 13 156 l25 0 q0 -68 78 -117 l13 0 q208 0 338 804 q-16 64 -40 64 l-64 0 q-377 -43 -377 -142 q-267 -869 -453 -869 l-39 0 q-63 0 -130 337 l26 0 q61 -247 117 -247 q126 86 350 726 l0 27 l-14 0 q-506 -211 -506 -325 l0 -25 q-25 0 -25 25 l0 65 q33 93 584 364 q194 556 194 635 q-52 128 -52 168 ZM697 1235 q30 0 79 -285 q12 0 90 64 l14 0 q-75 -182 -104 -193 l-53 0 q-51 17 -51 116 l0 272 q3 26 25 26 ZM1190 470 q143 -125 143 -233 l0 -26 q0 -68 -39 -78 l-13 0 q-52 0 -117 286 l0 25 q4 26 26 26 Z" /><glyph glyph-name="uni4E48" unicode="&#x4e48;" d="M1053 1222 l50 0 q23 -3 23 -24 l0 -12 q-266 -438 -463 -731 q-33 -82 -61 -123 l49 -11 l0 -12 q0 -113 -159 -135 l-48 86 q83 180 475 767 q109 195 134 195 ZM1248 735 l49 0 l0 -73 q-125 -186 -402 -707 l12 0 q35 0 451 196 q24 0 24 23 l-12 75 q12 35 73 35 q196 -214 196 -352 q12 0 12 -36 q0 -18 -38 -38 l-12 0 q-70 0 -84 109 q-64 134 -86 135 l-11 -1 q-40 -33 -208 -109 q0 -41 -207 -110 q0 -7 -74 -48 l-24 0 l-72 12 q-25 -12 -38 -11 l-24 35 l0 49 q46 165 451 804 l24 12 Z" /><glyph glyph-name="uni4E4B" unicode="&#x4e4b;" d="M882 1278 q283 -63 283 -177 l-53 -35 l-18 0 q-142 0 -265 159 l0 18 q0 35 53 35 ZM1378 818 l35 0 q53 0 53 -71 q-131 -333 -549 -602 l0 -36 q815 -195 815 -301 l0 -106 q-59 0 -88 -18 q-696 266 -1010 266 q0 -36 -36 -36 l-53 0 q-25 0 -53 53 l0 36 q0 64 319 124 q396 342 549 585 l0 17 q-193 -35 -638 -177 l-53 0 q-25 0 -53 53 l0 18 q0 25 53 53 q6 -35 36 -35 q481 177 673 177 Z" /><glyph glyph-name="uni4E5F" unicode="&#x4e5f;" d="M1129 1202 q103 -144 103 -312 q179 23 348 23 l23 0 q138 0 138 -128 q0 -167 -335 -324 l0 12 q202 193 232 312 l0 24 l-163 0 q-220 0 -220 -36 q0 -37 58 -381 l0 -11 q0 -23 -23 -23 l-23 0 q-32 0 -81 323 l12 0 l-12 23 l0 58 q-105 0 -370 -150 q0 -217 301 -522 q264 -92 266 -115 q-12 -34 -70 -34 l-46 0 q-257 0 -464 440 q-45 140 -45 184 q-20 0 -267 -127 l-58 -11 q-81 15 -81 46 q0 35 151 46 q220 152 220 162 q-23 140 -23 220 l0 12 q0 62 46 80 l104 0 l0 -23 l-23 0 q-81 -3 -81 -22 q0 -137 46 -233 q305 151 371 151 q0 188 -59 324 l25 12 Z" /><glyph glyph-name="uni4E61" unicode="&#x4e61;" d="M1144 1345 l50 0 q23 -4 23 -24 l0 -12 q-22 12 -35 12 q-217 -176 -440 -549 q-24 -39 -24 -72 q367 96 414 96 q23 -12 37 -12 q98 117 98 133 l48 0 l0 -11 l-36 -49 q13 0 13 -12 q-29 1 -50 -49 q12 2 12 -11 q-28 -1 -280 -379 l12 0 q183 134 341 134 q81 133 98 134 q25 0 25 -36 q-57 -145 -391 -745 q-49 -182 -73 -182 l-48 1 q-19 -1 -38 48 q53 240 403 756 q-407 -256 -451 -256 l-24 0 q-25 0 -25 24 l0 24 l329 439 l-12 0 q-330 -109 -414 -109 q-61 15 -61 36 l0 37 q29 139 414 573 l85 61 Z" /><glyph glyph-name="uni4E86" unicode="&#x4e86;" d="M1291 1370 q49 0 109 -98 q-7 -84 -316 -390 l0 -24 q0 -26 146 -62 q85 -91 85 -244 l0 -121 q0 -521 -231 -743 l-13 0 q-298 8 -330 134 l26 12 q134 -61 231 -61 q188 0 232 598 l0 60 q0 12 12 12 q0 282 -134 305 q-134 24 -134 73 l0 48 q80 113 317 342 q0 28 11 50 l-36 23 q-432 -37 -548 -85 l-25 36 l0 12 q28 77 598 123 Z" /><glyph glyph-name="uni4E89" unicode="&#x4e89;" d="M932 1673 l12 0 q18 0 37 -37 q0 -21 -268 -572 l-134 -305 q-18 -109 -48 -109 l-49 0 l-13 85 q0 70 305 646 q117 254 158 292 ZM1261 1405 l24 -12 q24 12 38 12 q109 -28 109 -61 q-30 -119 -317 -329 q-61 -49 -61 -61 q269 61 390 61 l48 1 q134 -1 134 -85 q0 -49 -158 -293 l-73 -145 q24 -1 24 -13 q49 12 49 72 q68 1 134 -84 q0 -48 -244 -98 q-35 -64 -97 -147 q-13 -27 -24 -157 q0 -11 11 -12 l-11 -61 l0 -194 q0 -44 -12 -110 q12 -21 12 -49 q-10 -256 -50 -256 l-36 0 q-150 0 -317 121 l-12 25 l0 11 l61 0 q219 -60 244 -60 q0 13 12 37 q12 400 12 621 l0 182 l-12 0 q-463 -121 -524 -121 l-12 24 l0 38 l561 157 l-13 85 l0 110 l-73 -12 l-24 12 q-57 -36 -341 -98 l-12 49 q84 69 438 134 q0 27 12 48 q-24 47 -24 134 q-355 -94 -474 -170 l-50 1 l0 12 q0 97 171 133 q329 228 523 439 l0 12 l-36 0 q-27 0 -48 12 l-330 -98 l-23 36 q0 57 339 135 l62 12 ZM1213 905 q48 -68 48 -98 q-24 -2 -24 -22 l11 -61 l123 11 l48 0 q18 0 85 134 q12 0 12 48 q-21 14 -48 14 l-62 0 q-177 -26 -193 -26 ZM1248 601 l0 -159 l25 0 q36 24 98 208 l-13 0 q-110 -14 -110 -49 Z" /><glyph glyph-name="uni4E8C" unicode="&#x4e8c;" d="M791 1148 l18 0 q62 -102 305 -136 l52 -68 l0 -17 q0 -89 -255 -289 l0 17 l67 204 l0 18 q-136 0 -187 271 ZM1557 315 q120 -30 120 -69 l0 -33 q0 -79 -580 -102 q0 -17 -339 -86 q-341 0 -341 69 q179 50 1140 221 Z" /><glyph glyph-name="uni4E8E" unicode="&#x4e8e;" d="M1145 1449 q47 -12 98 -12 l12 0 q0 -36 36 -37 l0 -61 l-86 -61 l-48 0 l0 24 l37 49 l0 12 q-37 0 -86 12 l-353 -97 l-61 0 q-25 0 -25 24 l0 25 l49 13 l0 -13 q301 110 427 122 ZM1072 1327 q40 -25 61 -25 l0 -12 q0 -12 -13 -12 q25 -73 37 -232 l-12 -61 q12 -97 37 -97 q183 60 450 109 q62 -9 62 -36 l0 -25 q-181 -22 -512 -122 l-13 -73 q0 -13 13 -13 l-13 -60 l13 -109 l-13 -24 l13 -62 l-13 -62 q13 -66 13 -96 l-13 -25 l13 -24 q0 -27 -13 -48 q13 -84 13 -135 l0 -25 q0 -27 -13 -48 q13 -21 13 -48 q0 -223 -98 -306 q-21 -49 -86 -49 l-110 0 q-27 0 -48 12 q-23 -12 -36 -12 q-74 12 -74 37 q0 17 37 37 q12 0 12 -12 q305 -1 305 170 l12 74 l0 597 q0 192 -24 256 q-532 -171 -549 -171 l-61 0 l-61 13 l0 49 q130 -1 525 146 q158 44 158 73 q0 142 -49 440 l12 -1 l25 12 Z" /><glyph glyph-name="uni4E9B" unicode="&#x4e9b;" d="M651 1344 l37 0 q23 -4 23 -24 q38 -505 38 -609 l-12 0 l12 -25 l0 -37 q0 -43 -12 -109 l12 -24 q-20 -98 -49 -98 q-24 12 -37 12 l0 134 q0 62 -12 183 l12 0 q-12 24 -12 37 q0 151 -24 547 l24 13 ZM1309 1198 q48 -19 48 -36 q0 -25 -24 -25 l12 -61 l0 -207 l12 0 l256 97 l12 -24 l0 -25 q0 -59 -292 -132 l0 -183 q0 -207 110 -208 q58 0 146 61 l49 0 l12 -48 q-52 -49 -109 -75 q0 -22 -110 -48 q-171 47 -171 146 q-15 1 -24 51 q0 11 11 10 l-11 62 l0 183 q-43 -1 -158 -48 l-73 -14 l-25 37 l0 12 q0 32 256 111 l11 23 l0 109 q0 13 13 13 q-13 23 -13 36 q0 183 62 183 ZM1102 1040 q23 -13 36 -13 l0 -36 q0 -37 -268 -110 q0 -17 -37 -36 l-36 0 q-24 0 -24 24 l0 36 q24 67 329 135 ZM492 931 l13 0 q20 0 49 -159 q-12 -171 -12 -292 l0 -98 q0 -63 -37 -73 q-61 1 -61 183 l0 25 q0 26 12 47 q0 12 -12 14 l12 84 l0 133 q0 29 -12 51 q21 85 48 85 ZM907 430 l24 0 q25 -3 25 -23 l-207 -184 q-144 -107 -281 -121 q-24 1 -24 25 l0 37 q0 23 134 59 q17 4 329 207 ZM1272 187 q159 -9 159 -48 l0 -14 q0 -17 -37 -35 l-110 0 q-27 0 -48 13 q-84 -26 -389 -74 q-74 16 -74 48 q21 62 60 62 q14 0 37 -14 q320 62 402 62 ZM1515 -130 q51 -24 74 -24 l0 -24 q0 -65 -792 -110 l-24 0 q-31 0 -36 48 q12 24 12 38 q89 0 267 24 l0 -12 q117 24 415 48 l24 -12 l60 24 Z" /><glyph glyph-name="uni4EB2" unicode="&#x4eb2;" d="M966 1471 l81 -17 l195 0 q40 -32 65 -31 l0 -33 q-108 -66 -146 -66 q0 54 -244 65 q0 17 -33 17 l0 49 q82 -1 82 16 ZM1372 1260 q32 -16 48 -17 l0 -16 q-10 -49 -130 -49 l0 -16 l32 0 l0 -227 q0 -69 -80 -163 l16 0 q152 49 260 50 l0 -17 q-15 -43 -244 -114 l-16 -33 l0 -194 q38 0 162 97 l196 17 l15 -33 l0 -32 q-357 -89 -357 -147 l-16 -98 l0 -389 q0 -228 -64 -228 q-54 1 -65 212 q32 0 32 33 l0 422 q0 32 -32 32 q-150 -65 -456 -113 l-15 31 q0 29 356 98 q0 32 163 65 l0 195 q0 32 -33 32 l-536 -129 l-146 1 q12 61 358 112 q0 20 146 49 q-33 72 -33 211 q0 17 16 17 l-16 31 l0 115 q0 23 49 48 l16 0 q44 -367 65 -389 q114 0 114 32 q-16 32 -16 48 q52 0 81 163 q0 16 -17 16 q20 153 33 195 q-389 -80 -503 -80 l-17 0 q-32 0 -32 32 q13 75 666 130 ZM1485 204 l17 0 q53 0 114 -228 l0 -32 l-17 -113 l-66 0 q-80 311 -80 324 l0 16 q6 33 32 33 ZM820 122 l49 0 q0 -137 -18 -406 q25 1 49 -48 q-42 -79 -64 -82 l-49 0 q0 26 -32 65 q0 298 65 471 Z" /><glyph glyph-name="uni4EBA" unicode="&#x4eba;" d="M1183 1284 q48 -19 48 -37 l0 -13 q-97 -58 -97 -97 q-67 -61 -306 -548 q-16 -2 -158 -305 q-109 -233 -109 -365 q48 -7 48 -37 q0 -61 -60 -110 l-86 1 l-12 72 q0 277 658 1402 l74 37 ZM963 516 l13 0 q110 0 523 -487 q146 -130 146 -159 l0 -49 q0 -24 -24 -24 l-73 0 q-2 47 -561 633 q-49 1 -49 39 l0 23 q4 24 25 24 Z" /><glyph glyph-name="uni4EC0" unicode="&#x4ec0;" d="M1413 1296 l11 0 q49 0 62 -232 q-25 -97 -25 -255 l12 0 q98 2 257 73 q72 -25 72 -73 q-106 -68 -329 -98 q-24 -53 -24 -195 l0 -293 q0 -12 -12 -12 q12 -24 12 -36 l-12 -85 q0 -13 12 -13 l-12 -85 l0 -48 q0 -44 12 -110 q0 -74 -98 -73 q-60 124 -72 133 q4 95 61 147 l0 146 q0 12 11 13 q0 12 -11 11 l11 62 l0 182 q0 52 -11 134 q11 19 11 73 q-11 23 -11 37 l-25 0 q-51 0 -133 -13 q-13 0 -13 13 l-61 -13 l-84 0 l0 13 q0 60 339 97 q0 31 13 329 q-13 108 -13 135 l50 36 ZM914 1247 q24 -29 24 -48 q-50 -49 -439 -769 q-36 -69 -36 -83 l12 -2 q21 13 48 13 q0 -13 12 -13 q-53 -206 -158 -206 l-37 0 q-18 0 -48 48 l0 36 q40 129 377 708 q98 211 208 316 l37 0 ZM791 626 q17 0 37 -37 l0 -207 q0 -44 -12 -110 q19 -46 36 -243 q0 -135 -85 -135 q-48 48 -48 367 l0 72 q0 293 72 293 Z" /><glyph glyph-name="uni4ECE" unicode="&#x4ece;" d="M1291 1247 l24 2 q25 -6 25 -26 l0 -146 q0 -28 12 -50 q-12 -35 -24 -35 q0 -13 12 -13 q-122 -601 -122 -609 q63 0 316 -293 q108 -54 184 -220 l0 -24 l-62 -11 q-64 48 -122 145 q-122 158 -304 330 l-25 0 q0 -174 -134 -475 q-15 -13 -61 -13 q0 13 -23 13 l0 72 q79 0 279 1121 l-11 0 l11 26 l0 182 q4 24 25 24 ZM644 1113 l26 0 q-59 -374 -148 -683 q-48 -396 -48 -463 q25 -44 25 -97 l0 -13 q0 -24 -25 -24 l-36 0 q-62 37 -62 98 q0 275 220 1096 q39 86 48 86 ZM584 407 l12 0 q277 -98 427 -123 l0 -24 q0 -32 -62 -61 q-361 91 -401 171 l0 12 q3 25 24 25 Z" /><glyph glyph-name="uni4ED6" unicode="&#x4ed6;" d="M767 1278 l12 0 q24 -4 24 -25 q-122 -219 -451 -670 q0 -11 -60 -146 l12 1 q0 15 60 59 l13 0 q-37 -77 -110 -134 l-49 0 l-12 48 q0 150 561 867 ZM1499 1253 l24 0 q24 -3 24 -24 l0 -97 q0 -244 -24 -318 l12 0 q130 62 232 62 l36 0 q26 -5 26 -25 l0 -37 q0 -134 -208 -585 l-61 -12 q-74 44 -74 146 q26 0 49 -97 l25 0 q40 0 219 548 l0 24 q-256 -54 -256 -97 q-51 -500 -109 -500 l-12 0 q-53 0 -123 268 q19 -3 97 -219 l26 0 l60 438 l-12 0 q-254 -112 -256 -133 l0 -622 q0 -61 402 -98 q61 8 293 110 l0 -12 q-119 -171 -256 -170 l-121 -1 q-404 37 -404 183 l0 61 q0 187 12 512 q13 0 13 12 l-13 0 q-108 -61 -170 -61 l0 37 q183 63 183 110 q0 85 12 329 l25 12 l12 0 q33 0 48 -146 l-24 0 l0 49 l-12 0 l0 -232 l12 0 q37 0 37 37 q12 0 12 -12 q219 91 219 122 q25 381 25 438 ZM645 826 l25 0 q23 -3 23 -24 l0 -74 q0 -225 -23 -853 l11 -49 q-17 -48 -36 -48 l-12 0 q-18 0 -36 36 q0 131 48 976 l0 36 Z" /><glyph glyph-name="uni4EE4" unicode="&#x4ee4;" d="M1130 1595 l22 0 q22 -3 22 -22 q-592 -894 -780 -1429 l-22 -10 l-22 0 q-23 5 -44 54 q145 475 824 1407 ZM987 1189 l11 0 q707 -472 791 -781 l0 -33 q0 -16 -32 -33 l-44 0 q-34 0 -66 154 q-121 207 -660 671 l0 22 ZM954 771 q60 -16 165 -143 l0 -44 q0 -22 -22 -22 l-44 0 q-99 90 -99 209 ZM1405 386 l22 -33 l0 -44 q-96 -246 -319 -363 l-11 0 l0 -88 q0 -59 11 -154 q-21 -49 -44 -54 l-33 0 q-11 0 -44 44 q22 155 22 252 q0 122 -44 166 q3 22 22 22 q47 0 110 -100 q199 184 242 275 l-11 0 q-185 0 -538 -153 l-34 0 q-22 0 -22 22 l0 98 l22 0 q8 -66 22 -66 q309 157 627 176 Z" /><glyph glyph-name="uni4EE5" unicode="&#x4ee5;" d="M1443 1217 l12 0 q29 0 37 -84 q-20 -1 -97 -378 q-148 -379 -256 -891 l-61 -11 q-49 17 -49 35 l0 48 q0 258 390 1269 l24 12 ZM407 912 l24 0 q-36 -413 -36 -658 l12 -110 l13 0 q200 209 365 622 l37 24 l36 1 q57 -36 208 -305 q12 0 36 -49 l0 -37 q0 -24 -24 -24 l-62 0 q-64 0 -182 365 l-12 0 q-59 -82 -243 -536 q-85 -159 -159 -159 q-123 0 -123 244 q34 592 110 622 ZM1333 510 l24 -1 q104 0 294 -329 q146 -190 146 -292 l0 -12 q0 -24 -73 -37 q-50 0 -159 293 l-208 354 l-24 0 l0 24 Z" /><glyph glyph-name="uni4EEC" unicode="&#x4eec;" d="M852 1467 l13 0 q24 -4 24 -25 q-236 -303 -317 -499 q-122 -119 -122 -257 l-109 -292 q0 -49 -25 -49 l0 -73 q0 -15 98 -49 l0 -12 q-33 -94 -73 -110 l-37 1 q-86 41 -86 109 q62 420 220 720 q172 277 414 536 ZM1743 1260 q122 0 122 -391 l0 -12 q0 -28 12 -48 q-12 -22 -12 -50 q0 -24 12 -24 l-12 -86 l0 -109 q0 -674 -110 -768 q-28 0 -50 -12 q-121 9 -121 24 l-24 -12 l-13 0 q-208 39 -255 61 l0 12 q4 25 24 25 q44 0 110 -13 q12 0 12 13 l60 -13 l98 0 q147 0 147 86 q37 377 37 573 l0 158 q0 102 -25 463 l-37 25 l-194 -61 l-38 0 q-24 0 -24 24 l0 26 q264 109 281 109 ZM1060 991 q170 -24 170 -134 l-48 -36 q-65 73 -147 110 l0 48 q25 0 25 12 ZM645 686 l61 0 l25 -12 q-25 -91 -49 -901 l0 -37 l11 -122 l-35 -25 q-98 45 -98 146 l0 25 q0 169 49 317 q24 470 24 572 q12 24 12 37 ZM1023 638 l12 0 q25 -4 25 -24 q0 -44 -25 -550 q25 -3 25 -23 q0 -269 -73 -269 l-12 0 q-33 5 -49 61 l11 61 l-11 25 l61 609 l-12 24 q21 86 48 86 Z" /><glyph glyph-name="uni4EFB" unicode="&#x4efb;" d="M950 1497 q24 -3 24 -25 q0 -56 -451 -779 q-121 -240 -121 -293 l11 0 q8 0 74 73 l36 0 l0 -24 q0 -73 -133 -195 l-13 0 q-73 1 -85 98 l0 36 q0 89 450 841 q141 248 208 268 ZM1644 1107 q86 -28 86 -48 l0 -24 l-12 -25 l-86 12 l-36 0 l-86 -24 l0 12 q-59 -25 -147 -25 q-121 7 -121 37 q13 24 13 37 l12 -1 l377 49 ZM791 888 l37 0 q24 -5 24 -24 q0 -86 -12 -98 q12 -83 12 -135 l0 -243 q0 -27 -12 -48 q12 -24 12 -37 q-8 -109 -24 -109 q24 -87 24 -208 l-24 -12 q0 -85 49 -85 q-26 -329 -98 -328 l-12 -1 q-48 20 -48 86 l0 11 q0 12 11 12 q0 12 -11 12 l11 86 l0 158 q0 12 12 12 l-12 26 q37 167 37 596 l0 12 q0 12 12 13 l-12 23 q0 12 12 13 l-12 25 l0 121 q0 24 24 122 ZM1522 766 l12 0 q25 -4 25 -25 l0 -110 q30 2 182 26 q24 -12 37 -12 l0 -50 q0 -27 -219 -60 q-25 -115 -37 -391 q12 -21 12 -48 q-12 0 -12 -12 q41 -25 74 -25 q19 0 145 13 q0 -7 61 -74 q0 -73 -72 -72 q-19 -1 -38 48 q-164 -11 -243 -11 l-25 0 q-26 0 -48 -14 q-109 22 -109 74 l170 73 q0 40 12 60 l-12 74 q0 27 12 49 q0 11 -12 11 l12 62 l0 146 l-170 -37 q-23 12 -37 12 q-20 -12 -49 -11 l-24 36 l24 14 l0 -13 q244 66 268 120 q31 148 61 147 Z" /><glyph glyph-name="uni4EFD" unicode="&#x4efd;" d="M1272 1376 l57 0 q209 0 476 -419 q160 -304 160 -361 l0 -27 q0 -21 -44 -44 l-29 0 q-25 0 -245 490 q-219 333 -375 333 l0 28 ZM723 1348 q71 -76 71 -145 q-23 -149 -215 -390 l0 -14 q71 0 71 -505 l0 -230 q0 -30 -27 -30 l-44 0 q-57 23 -57 101 l42 418 l-14 87 l0 101 q0 29 -28 29 q-251 -260 -333 -260 l-15 0 q-20 0 -43 43 q0 26 303 290 q260 263 260 490 l29 15 ZM1011 1102 l30 0 q43 -9 43 -115 l0 -30 q0 -108 -159 -288 l-29 0 q-29 0 -29 28 l0 16 q0 31 144 274 l0 115 ZM1546 770 l71 0 q30 -4 30 -29 l0 -202 q-78 -563 -144 -563 l-59 0 q-100 78 -100 275 l28 0 q0 -55 58 -160 l29 0 q115 408 115 606 l-14 0 q-231 0 -231 -144 q-144 -692 -174 -880 l-43 -28 q-57 22 -57 43 q0 247 217 952 l-16 0 q-127 -28 -172 -28 l-15 28 q163 130 477 130 Z" /><glyph glyph-name="uni4F17" unicode="&#x4f17;" d="M1255 1461 q48 -19 48 -38 q0 -18 -134 -121 q-48 -110 -122 -110 q0 -18 -340 -475 q-174 -244 -256 -499 l-37 -24 q-17 0 -37 36 l0 36 q0 129 403 671 q117 192 304 353 q0 38 171 171 ZM1024 888 l23 0 q278 -209 475 -305 q0 -21 38 -60 l0 -13 q0 -66 -50 -84 l-24 -1 q-18 0 -36 36 q12 22 12 49 q-192 69 -463 328 l0 26 q3 24 25 24 ZM804 486 q24 -4 24 -25 q-73 -142 -170 -389 q-147 -335 -147 -354 l-86 -12 l-11 25 l0 12 q304 734 390 743 ZM1376 438 q13 -24 13 -38 q-158 -474 -220 -596 q-41 -61 -73 -60 q-19 -1 -49 -26 q-165 0 -292 121 q-134 71 -146 98 l0 12 l61 14 q52 0 256 -136 q98 -23 98 -36 q88 0 133 220 q48 97 134 341 q36 86 85 86 ZM1303 59 l49 0 q366 -293 366 -413 q-12 -50 -50 -49 q-28 0 -96 147 q-45 -1 -122 109 l-147 158 l0 48 Z" /><glyph glyph-name="uni4F1A" unicode="&#x4f1a;" d="M1072 1357 l16 0 q32 -5 32 -33 q-216 -200 -292 -437 q-97 -137 -292 -700 q-17 0 -65 -258 l15 -2 q6 32 33 32 l17 0 q-43 -243 -98 -243 l-32 0 q-33 0 -33 32 l0 50 q0 265 342 1039 q229 464 357 520 ZM1055 935 q0 -48 65 -48 l-15 -32 l33 14 q193 -16 584 -389 l0 -49 q0 -24 -65 -49 q-23 0 -147 163 q-455 306 -455 342 q-32 0 -32 32 l32 16 ZM1364 626 l17 -33 q0 -41 -439 -80 q-65 24 -65 48 q0 24 65 48 q16 0 16 -16 q177 33 406 33 ZM1138 350 l145 0 q33 -5 33 -31 l0 -18 q-228 0 -228 -114 l-113 -341 l0 -15 q4 -33 32 -33 q309 105 309 162 q-33 -1 -33 32 l0 32 q5 33 33 34 l33 -1 q48 0 113 -244 l0 -80 q0 -33 -33 -33 l-48 0 q0 48 -32 163 q-43 0 -211 -98 q-101 -49 -131 -49 l-17 1 q-97 0 -97 97 q0 69 114 439 l-17 0 q-28 -18 -64 -18 l-17 0 q-22 0 -49 50 q135 65 278 65 Z" /><glyph glyph-name="uni4F20" unicode="&#x4f20;" d="M1443 1528 l13 0 q48 0 48 -146 l0 -110 l37 0 l49 37 q110 0 110 -74 q0 -40 -207 -71 q-24 -313 -134 -330 q-23 12 -37 12 l0 11 q49 44 49 280 q-113 0 -232 -24 q-21 12 -49 12 l0 12 l14 62 l108 0 q54 0 195 36 l0 256 q0 17 36 37 ZM835 1125 l24 1 l0 -12 q-99 -170 -182 -257 q-132 -252 -195 -340 q0 -86 -49 -86 l-13 0 q-18 1 -48 49 l0 24 q1 83 463 621 ZM1627 809 l73 0 q0 -19 24 -49 q0 -43 -281 -85 q-53 0 -121 -500 l13 1 q151 48 267 59 q110 -40 110 -121 l0 -48 q-32 -134 -73 -196 q0 -44 -146 -145 q86 -122 86 -158 q0 -18 -38 -38 l-24 0 l-244 258 l0 24 l86 -1 l72 -37 q220 172 220 343 q-5 24 -61 48 q-55 -1 -219 -74 q-67 -13 -98 -12 q0 31 -48 36 l0 25 q0 49 97 499 l-12 0 q-96 -40 -378 -86 l-12 26 l0 24 q0 46 256 73 q374 134 451 134 ZM761 772 l26 0 q12 0 35 -48 l-12 -62 l0 -341 q0 -12 -11 -12 l11 -24 l0 -110 q0 -120 12 -292 q-23 -39 -23 -73 l-50 0 q-36 64 -48 171 q12 23 12 36 q0 37 -12 38 l24 388 l-12 25 q12 304 48 304 Z" /><glyph glyph-name="uni4F46" unicode="&#x4f46;" d="M865 1454 l36 0 l0 -12 q0 -27 -49 -98 q-182 -279 -402 -718 l0 -12 q0 -24 50 -24 l0 -25 q0 -63 -62 -85 q0 -49 -36 -49 l-49 0 q-37 71 -37 86 q0 83 415 767 q48 89 134 170 ZM1133 1211 l36 0 q25 -3 25 -25 l0 -23 q-25 -21 -38 -171 l13 -25 q-13 -21 -13 -48 l0 -13 q33 11 98 184 q236 109 379 109 l36 0 q110 0 110 -158 q-91 -659 -122 -659 l12 -23 q0 -137 -98 -171 q-24 39 -24 73 q24 40 24 73 l-60 -1 l-122 -12 q0 12 -13 12 q0 -27 -110 -48 l-48 0 q-24 0 -24 24 l0 24 q0 34 305 86 q6 -12 84 -12 q50 223 110 646 q-24 39 -24 60 l-122 0 l-231 -95 q-9 -39 -86 -160 q-12 -186 -48 -293 l0 -25 q24 -86 24 -97 q0 -62 -37 -72 l-24 0 q-69 0 -85 401 q12 22 12 49 q0 13 -12 13 l12 60 l0 110 l24 37 q0 13 -12 12 q0 43 49 158 ZM865 1065 q36 -12 36 -24 q-49 -281 -72 -330 q0 -12 11 -12 q-73 -464 -73 -695 l24 13 q38 0 38 -49 q-44 -134 -74 -134 l12 -24 l0 -12 q0 -38 -12 -38 l12 -60 l0 -61 q0 -17 -36 -37 l-12 0 q-30 25 -49 25 l0 146 q0 558 147 1268 l48 24 ZM1437 772 l0 -12 l25 12 q133 -22 133 -61 l0 -36 l-72 0 q-28 0 -49 14 l-24 -14 l-25 13 q-88 -19 -133 -50 l-26 0 q-24 0 -24 24 l0 37 q0 45 195 73 ZM1266 -20 q476 -24 476 -73 l0 -11 q0 -18 -37 -38 l-122 0 l-72 12 l-26 -12 q-67 20 -255 38 q-23 -13 -36 -13 l-25 36 l0 13 q0 34 97 48 Z" /><glyph glyph-name="uni4F4D" unicode="&#x4f4d;" d="M994 1315 l24 1 q17 0 36 -38 q-172 -208 -475 -804 l-134 -268 l0 -24 l48 36 l25 0 q-25 -146 -61 -146 l-12 0 q-23 12 -37 12 l-13 -25 l0 -12 l62 0 q-59 -182 -110 -182 l-49 0 q0 27 -36 72 q0 131 499 1049 q94 123 159 256 q54 74 74 73 ZM1212 1266 l25 0 q81 0 219 -195 l0 -48 q0 -29 -61 -37 q-144 187 -207 244 l0 12 q4 24 24 24 ZM1579 925 l48 0 q18 0 36 -36 l0 -38 q0 -24 -110 -48 q-39 24 -60 25 q-256 -61 -475 -146 q-24 39 -24 59 q0 36 475 172 q45 12 110 12 ZM1322 755 l13 -25 l-38 -73 q-11 -318 -11 -501 l0 -145 l11 -122 l-60 0 q-33 0 -49 158 q21 682 74 682 l60 26 ZM774 693 l24 1 q24 -1 37 -86 l-13 -60 q0 -13 13 -38 q-13 -66 -13 -110 q0 -36 13 -36 l-13 -85 l0 -414 l13 -86 l-48 -36 l-13 0 q-17 0 -49 61 q12 359 12 536 l12 24 q-12 21 -12 49 l0 25 l12 72 q-12 25 -12 38 q10 145 37 145 ZM1566 571 l25 0 l36 -23 q0 -221 -110 -550 q-9 0 -61 -97 l0 -24 l183 0 q163 0 195 -61 l0 -37 l-61 -12 l0 12 q-12 0 -12 -12 l-85 12 l-85 0 q-34 0 -329 -24 l-37 0 q-66 1 -98 61 q0 23 98 37 l24 -14 q125 0 183 196 q76 165 109 525 l25 11 Z" /><glyph glyph-name="uni4F4F" unicode="&#x4f4f;" d="M1234 1421 l55 0 q165 -46 165 -95 l0 -29 q0 -81 -220 -178 q0 -13 -14 -13 l0 13 q96 119 96 178 l-82 110 l0 14 ZM753 1339 l13 0 q22 0 69 -83 l0 -27 q-148 -435 -426 -605 q0 -37 -110 -55 l-14 0 q-29 5 -55 68 q0 30 234 207 q289 376 289 495 ZM1550 954 q55 -21 55 -41 l0 -42 q0 -46 -591 -95 q-82 13 -82 40 q0 67 618 138 ZM1330 776 l28 0 q68 -31 68 -139 l0 -81 l14 0 q122 27 165 27 l28 -56 q0 -59 -220 -96 l0 -385 q72 28 289 28 l110 0 q21 0 54 -55 l0 -42 q0 -19 -41 -41 l-41 0 q-16 0 -151 28 q-115 0 -715 -68 q-20 0 -42 40 q369 83 386 97 l0 371 l-317 -55 q-82 18 -82 40 q0 22 55 57 l14 0 l0 -29 q291 97 357 97 q14 161 14 233 q4 29 27 29 ZM670 761 q31 -31 42 -178 q-14 -361 -14 -647 q-31 -123 -69 -123 q-51 0 -83 206 q38 133 97 728 l27 14 Z" /><glyph glyph-name="uni4F53" unicode="&#x4f53;" d="M1345 1473 l25 0 q24 0 24 -36 q0 -108 12 -488 l13 0 q185 37 243 37 q24 -12 37 -12 l0 -25 q0 -27 -293 -61 l0 -365 q258 -94 488 -451 l0 -25 q0 -17 -36 -36 l-26 0 q-63 0 -121 62 l61 -1 q-182 283 -366 378 l0 -317 q92 36 158 36 q24 -12 37 -13 l0 -23 q-6 -28 -195 -74 l0 -438 q0 -19 -49 -37 q-60 24 -60 73 q12 125 12 196 l0 182 q-115 -24 -183 -24 l-24 12 q-9 -196 -48 -196 q-50 12 -50 74 q0 363 208 719 l97 135 l0 110 l-500 -110 l0 12 q0 44 366 122 q112 36 146 36 l0 133 q0 282 24 415 ZM724 1400 l48 0 l0 -24 q-158 -305 -389 -890 l24 12 l0 -25 q-106 -267 -134 -267 q-73 0 -73 60 q0 198 524 1134 ZM589 851 q42 0 50 -218 q-37 -512 -37 -720 l0 -24 q0 -63 -37 -73 l-36 0 q-31 0 -37 49 q0 240 85 938 q-12 23 -12 36 l24 12 ZM1297 657 l-24 -74 l24 -12 l12 0 l0 86 l-12 0 ZM1247 548 q-145 -362 -145 -489 l12 0 q195 32 195 62 l0 377 q-6 26 -62 50 Z" /><glyph glyph-name="uni4F55" unicode="&#x4f55;" d="M907 1393 l0 -25 q-53 0 -353 -694 q-20 -10 -85 -206 l11 1 q19 47 37 47 l0 -12 q-70 -184 -122 -184 l-12 1 l-24 37 l0 36 q0 200 450 938 q65 61 98 61 ZM1723 1368 l13 -24 l0 -12 q0 -36 -683 -146 l-24 0 q-50 17 -50 36 q707 148 744 146 ZM1601 1186 l25 0 q66 -21 73 -243 q0 -192 12 -1146 q-47 -134 -146 -134 l-12 0 q-257 0 -257 49 l62 0 q255 0 255 85 q0 85 13 85 q0 12 -13 12 q-12 534 -12 792 l0 329 q0 28 12 49 q-12 18 -12 73 l-23 -13 l-13 0 q16 62 36 62 ZM1065 979 l38 0 q12 -59 12 -158 q167 48 267 48 l24 0 q18 0 37 -36 l0 -74 q0 -68 -134 -255 l61 36 l12 0 l0 -24 q-65 -110 -244 -110 l-23 0 q0 -74 -38 -74 l-12 0 q-17 0 -36 38 l0 121 q0 228 36 488 ZM688 857 l24 0 q78 0 97 -573 q-11 -304 -11 -560 l-37 -25 q-63 0 -73 37 l0 536 q0 182 12 500 l-24 49 q12 23 12 36 ZM1115 735 l0 -256 l97 0 q146 220 146 316 l-12 0 q-231 -36 -231 -60 Z" /><glyph glyph-name="uni4F5C" unicode="&#x4f5c;" d="M1187 1608 l38 0 q23 0 23 -37 l-97 -317 q146 36 171 61 l49 0 q26 0 48 -13 q225 73 269 73 q48 -18 48 -35 l0 -25 q0 -49 -293 -98 q-97 0 -97 -670 q-13 -108 -13 -133 q13 -69 13 -136 l-13 1 q0 -12 13 -13 l-13 -83 l0 -124 l13 -146 l-13 1 l13 -26 l0 -85 l49 -219 q-12 -24 -12 -37 l12 -47 q-19 -51 -37 -51 l-12 0 q-85 0 -85 146 q-24 258 -24 599 l11 -1 q0 12 -11 13 q11 243 11 365 l0 110 q0 12 13 12 q0 12 -13 12 l25 281 l-12 24 q12 122 24 122 q-12 22 -12 49 l-110 -25 q-23 13 -36 12 q-61 -190 -61 -353 l0 -12 l11 -74 q0 -72 -85 -72 q-40 10 -48 110 q4 220 207 804 l36 37 ZM700 1243 l37 -1 l61 -12 l0 -25 q-175 -200 -403 -756 l0 -61 l61 -12 l0 -36 q-32 -74 -49 -74 l-48 0 q-86 62 -86 122 q88 325 427 855 ZM1674 900 l50 0 q25 0 25 -36 q-92 -281 -196 -280 l-12 23 q102 293 133 293 ZM688 827 q1 -16 60 -49 l-11 -61 l-37 -632 q12 -155 12 -184 q-19 -49 -36 -49 q-86 12 -86 36 l0 158 l12 74 q0 12 -12 12 q37 265 49 525 q-12 62 -12 146 q40 24 61 24 ZM1395 353 l12 -1 q160 0 415 -220 l0 -60 q0 -20 -50 -50 q-24 0 -182 147 q-219 75 -219 121 q24 41 24 63 Z" /><glyph glyph-name="uni4F60" unicode="&#x4f60;" d="M894 1444 l15 -32 q-156 -383 -466 -871 l0 -15 l59 54 l0 -30 q-88 -183 -180 -238 l-30 3 q-22 3 -45 50 l0 30 q30 176 602 1038 q16 -1 45 11 ZM1225 1396 q30 -3 30 -47 q-75 -165 -105 -276 q66 52 602 90 q60 -29 60 -52 l0 -59 q0 -141 -391 -428 l0 -15 q0 -167 15 -815 l-45 -25 l-45 4 q-91 53 -91 340 l30 -2 l16 -78 l15 0 l0 135 q0 282 15 826 l45 26 q45 -5 45 -171 l0 -120 q171 153 301 331 l0 16 q-527 -23 -603 -91 q-59 -129 -135 -437 l-45 4 q-23 1 -45 64 q121 562 331 780 ZM665 745 l17 -4 q-24 -349 -2 -925 l-2 -30 q-1 -21 -47 -38 l-45 8 q-35 5 -38 112 q59 887 117 877 ZM1150 561 l30 -3 q31 -8 31 -33 l0 -16 q-61 -68 -137 -483 l45 26 l16 -1 l0 -16 q-74 -158 -105 -155 l-46 5 q-21 2 -45 49 l0 15 q0 391 211 612 ZM1519 527 l55 -6 q190 -18 275 -536 l0 -70 q0 -21 -54 -49 l-43 4 q-21 2 -54 61 l0 55 q0 14 14 12 q-61 475 -193 487 l0 42 Z" /><glyph glyph-name="uni4F9B" unicode="&#x4f9b;" d="M866 1370 l60 -13 l0 -37 q-52 0 -206 -317 q-281 -542 -281 -621 q-12 0 -12 -37 l134 110 l37 0 l0 -36 q-107 -184 -195 -184 l-25 0 q-16 0 -61 62 l0 36 q0 65 171 353 q158 366 378 684 ZM1596 1272 l62 0 q-13 -183 -13 -269 l0 -36 l25 0 l85 -12 l0 -24 q0 -40 -122 -74 q0 -58 -85 -498 l12 0 q105 23 183 23 q24 -11 36 -11 l0 -62 q-320 -59 -341 -97 q-13 0 -36 11 q-260 -48 -305 -47 l-24 -1 q-24 0 -24 25 q46 33 218 85 l0 463 q-14 0 -133 -24 l-13 24 q146 73 146 86 l0 145 q0 28 13 48 q-13 22 -13 49 q0 50 26 147 l35 0 q16 0 98 -158 q58 -61 134 -62 q0 51 36 269 ZM1353 1053 l0 -86 q0 -12 -12 -12 l12 -24 l0 -62 l61 1 q33 27 121 36 l0 13 q0 15 -145 108 l0 26 l-37 0 ZM1353 724 q0 -13 12 -13 l-12 -49 q0 -108 37 -158 l0 -122 l-25 -37 l0 -24 l61 0 q24 0 109 463 q-11 21 -11 50 q-159 -27 -159 -86 q0 -24 -12 -24 ZM853 809 l13 0 q24 0 24 -37 q-24 -39 -24 -73 l-37 -682 q49 -69 49 -98 q-21 0 -49 -194 l-97 0 l-12 109 q0 13 12 36 q-12 24 -12 37 l12 0 q0 12 -12 12 q57 877 109 877 l24 13 ZM1304 90 l49 0 l37 -25 q-14 -121 -14 -182 l0 -85 l26 -38 q0 -72 -74 -72 q-31 37 -48 37 l0 194 q0 79 24 171 ZM1670 65 q56 0 73 -169 l-12 1 l12 -27 l0 -110 q0 -61 -37 -72 l-73 0 l0 49 q0 12 12 12 l-12 24 l0 13 q0 12 12 12 l-12 24 l0 61 l-12 146 l49 36 Z" /><glyph glyph-name="uni4FB5" unicode="&#x4fb5;" d="M992 1510 l13 0 q23 -3 23 -25 q-84 0 -401 -597 q-159 -243 -269 -463 l25 13 l12 -1 q-71 -144 -110 -171 l-49 0 q-17 0 -36 37 l0 25 q102 281 572 999 q153 183 220 183 ZM1467 1498 q160 0 160 -220 q-30 -418 -147 -475 l-73 0 q-24 0 -24 24 l0 12 q61 0 61 86 l-330 -110 q-23 12 -36 13 l0 25 q264 96 389 121 q38 141 38 182 l-12 0 q-401 -133 -427 -133 l-12 0 q-26 0 -26 23 l0 25 q328 134 465 134 l24 0 l12 110 q0 110 -85 110 q-166 -25 -378 -98 q-24 13 -38 13 l0 36 q285 122 439 122 ZM724 998 l13 0 q43 0 60 -367 q-12 -235 -12 -413 l0 -123 q0 -239 24 -451 l-37 -25 l-35 0 q-62 0 -62 391 l0 24 q0 391 24 953 l25 11 ZM1773 828 q121 -13 121 -111 q0 -90 -145 -182 q24 -40 24 -73 l0 -12 q0 -109 -208 -488 q237 -171 281 -233 l0 -36 q0 -17 -37 -37 l-12 0 l-84 12 l0 13 l23 36 q-106 70 -219 159 q-111 -227 -243 -329 l-50 0 q-60 0 -60 256 l0 243 q0 122 96 122 q66 0 233 -134 q194 338 194 452 l-12 0 q-158 -49 -389 -183 q0 -33 -122 -50 q0 13 -14 13 l0 -73 l-60 0 q-24 49 -50 562 l38 0 l24 -86 q408 158 671 159 ZM1114 607 q33 -304 50 -304 q379 246 549 268 q84 109 84 146 l0 12 q0 26 -24 26 q-224 0 -635 -124 q0 -24 -24 -24 ZM1224 108 l-12 -25 l0 -183 q0 -256 48 -256 l184 305 q-156 159 -220 159 Z" /><glyph glyph-name="uni4FC3" unicode="&#x4fc3;" d="M765 1563 l42 -4 l0 -15 q-158 -331 -446 -793 q0 -45 -87 -92 l-14 2 q-29 2 -29 32 l0 28 q0 58 534 842 ZM1098 1486 l13 -1 l30 -18 q14 -268 14 -391 l0 -418 q0 -21 -44 -40 l-13 2 q-22 3 -44 48 l0 419 q0 123 14 388 l30 11 ZM1718 1309 q34 -3 44 -106 q-27 -168 -246 -409 q130 -13 130 -40 l0 -30 q0 -32 -100 -47 q-16 -98 -16 -158 l0 -87 q23 27 318 55 l15 -1 l0 -58 q0 -61 -303 -56 q-32 -286 -73 -282 q-23 2 -58 63 l0 202 q0 176 30 329 l-30 5 q-34 3 -129 -31 q-58 26 -58 48 l0 15 q419 279 419 508 l-15 1 q-29 3 -346 -53 l-29 3 q-29 4 -29 32 q0 56 361 109 l115 -12 ZM636 1013 q33 -3 43 -105 q0 -139 14 -998 q-48 -24 -87 -21 q0 21 -44 47 q25 1082 74 1077 ZM1141 471 l14 -1 q44 -5 101 -472 q50 -49 144 -58 q131 -13 463 84 l0 -15 q-223 -223 -448 -200 q-304 30 -304 290 l0 347 q4 27 30 25 ZM1530 403 l0 -43 l16 -1 l0 44 l-16 0 Z" /><glyph glyph-name="uni4FD8" unicode="&#x4fd8;" d="M1657 1515 l48 -12 l0 -62 q0 -27 -85 -35 l-25 12 q-220 -37 -413 -110 q44 -150 72 -364 l-24 -13 l-61 0 q-49 187 -49 341 q13 0 13 11 l-13 0 l-48 -36 l-12 0 q-31 0 -37 49 q0 107 634 219 ZM779 1406 l38 0 q17 0 35 -38 l-352 -766 q-86 -253 -86 -293 l24 12 l38 0 l0 -36 q-47 -195 -110 -195 q-73 42 -73 73 q0 319 352 987 q98 256 134 256 ZM1437 1356 l12 0 q40 0 62 -304 q11 0 11 -25 l12 0 q158 222 158 305 l49 0 q17 0 37 -36 q-23 -127 -207 -390 l0 -11 q95 -1 121 -62 l0 -24 q0 -120 -193 -280 q132 -157 169 -303 q134 -26 134 -63 l0 -11 q-125 0 -170 -74 l12 -61 q-129 -475 -231 -473 q-231 77 -231 205 l12 0 q56 0 158 -98 l37 0 q158 224 158 476 l-13 0 q-423 0 -474 -73 l-12 0 q-17 0 -61 60 l0 25 q0 73 547 85 l0 25 q0 105 -145 219 l-14 49 q0 15 172 194 q0 22 36 61 q0 24 -24 24 l-329 -72 l-12 24 l0 24 q0 35 183 85 q84 48 84 122 q-96 0 -96 281 q22 96 48 96 ZM658 736 q49 -12 49 -74 q0 -260 -37 -694 q49 -3 49 -48 q-32 -171 -74 -171 l-23 0 q-20 0 -50 49 l0 195 q0 13 13 13 q0 11 -13 11 q16 148 25 170 q0 13 -12 13 q25 141 25 340 l0 86 q0 27 -13 49 q21 61 61 61 Z" /><glyph glyph-name="uni4FDD" unicode="&#x4fdd;" d="M1063 1373 l66 0 q16 -86 16 -98 l162 18 l17 -2 q194 2 194 -161 q0 -76 -226 -261 l-66 0 l0 33 l194 195 l0 65 q0 24 -48 49 l-48 0 q-37 0 -65 -16 q-29 16 -65 16 l-33 0 q48 -445 48 -487 l-32 -18 l-48 0 l-17 115 l17 0 l-17 33 l0 48 q0 70 -49 471 ZM723 1227 l15 0 q0 -26 -194 -390 q-97 -353 -97 -406 l15 -146 l-48 -33 l-17 0 q-48 10 -48 130 q0 16 15 16 l-15 33 q102 515 374 796 ZM690 789 l48 0 l-15 -83 l0 -308 q0 -36 -16 -65 q0 -16 16 -16 l-16 -162 l0 -113 q0 -60 16 -148 l-16 -33 q16 -30 16 -48 l-33 -15 l-32 0 q-33 0 -33 33 l0 486 q0 37 16 65 q0 16 -16 16 l16 115 l0 129 q39 52 49 147 ZM1340 789 l49 0 l16 -83 l0 -64 l15 0 q118 0 212 32 l16 -32 q-43 -81 -228 -81 l0 -326 q321 -198 326 -308 q-53 -33 -81 -33 q0 58 -212 212 l-33 0 l0 -195 q0 -36 -15 -65 q15 -29 15 -65 l0 -65 q0 -33 -31 -33 l-49 0 q0 50 -16 115 l16 33 q0 15 -16 15 l16 113 l0 309 l-16 0 l-115 -389 l17 -33 l0 -65 q-12 0 -97 -16 l0 33 q0 245 195 730 q-416 -130 -537 -130 l0 82 l33 0 q19 0 178 33 l33 0 q0 44 309 113 l-16 32 l0 48 l16 83 Z" /><glyph glyph-name="uni5019" unicode="&#x5019;" d="M865 1399 q55 -23 60 -48 l0 -12 l-109 -86 q-126 -234 -366 -622 q-46 0 -122 -182 q0 -49 -73 -61 l-24 37 q50 194 121 194 q11 48 256 403 q164 298 208 353 l49 24 ZM1449 1339 q158 -17 158 -86 q0 -72 -182 -267 l158 36 l74 0 l0 -61 q-47 0 -74 -25 l-62 0 q-169 -269 -169 -317 l11 0 q179 98 403 98 l61 -12 l0 -60 q0 -26 -25 -26 l-49 0 l0 26 l-48 0 q-146 0 -146 -184 q-12 -63 -12 -121 q206 60 243 109 l12 0 l61 -11 l0 -38 q-24 -52 -342 -170 q-84 -437 -181 -524 l-25 0 l-25 12 q122 343 122 465 l0 12 q-37 -30 -170 -63 q-1 -16 -61 -48 q-13 0 -13 12 q-80 -37 -110 -37 l-11 25 l0 37 q97 55 97 97 q32 323 231 620 l0 50 q-133 -28 -181 -61 l-86 0 q-24 0 -24 24 l0 13 q8 37 256 97 q0 58 109 171 q61 86 61 109 l-12 0 q-13 0 -37 12 q-121 -24 -244 -24 q-55 23 -61 49 l0 23 l50 12 l24 -12 q72 26 219 38 ZM633 912 l48 0 q27 1 49 -85 q-49 -386 -49 -464 l0 -109 q0 -12 -12 -12 q0 -12 12 -12 q-12 -183 -12 -267 l0 -305 l-11 0 q-64 1 -75 36 l0 37 q0 12 13 12 q-13 23 -13 36 q0 522 62 999 l0 12 l-12 122 ZM937 865 q24 -14 37 -14 l0 -73 q0 -28 12 -49 q-25 -61 -25 -182 q0 -138 49 -268 l-24 -13 l-49 1 q-45 -1 -60 182 q0 415 60 416 ZM1352 559 l-37 0 q-73 -176 -73 -341 q231 45 231 195 q25 165 25 206 l-13 0 q-43 0 -133 -60 ZM1583 84 q148 -120 267 -329 q-17 -49 -35 -49 q-66 28 -123 121 l-145 196 l0 24 q0 17 36 37 Z" /><glyph glyph-name="uni505A" unicode="&#x505a;" d="M728 1352 l0 -14 q-298 -711 -425 -1178 l-28 -13 l-29 4 q-22 1 -44 46 l0 14 q35 364 512 1142 l14 -1 ZM1056 1356 l13 -2 q28 -2 28 -45 q0 -233 -28 -395 q70 -6 70 -35 l0 -28 q-83 -34 -83 -134 q-30 -163 -30 -238 l71 6 q128 -12 128 -168 l0 -86 q0 -75 -42 -123 l13 -74 q-94 -32 -212 -21 l-13 31 l0 28 q155 86 155 183 l0 100 q0 29 -29 30 l-28 3 q-35 4 -128 -16 q15 -306 15 -454 l0 -114 q0 -22 -58 -53 q-71 31 -71 93 q0 725 57 719 l14 -2 l43 -32 l-14 73 l0 84 l14 99 q-92 -19 -127 -16 l-72 8 l0 28 q0 23 199 66 q67 491 115 485 ZM1508 1310 l13 -30 q-13 -349 -29 -394 q194 23 228 18 q70 -5 70 -163 q0 -178 -169 -507 q223 -237 271 -411 l0 -14 q-30 -54 -73 -50 q-36 3 -269 353 q-82 -203 -186 -193 q-81 7 -97 365 q24 140 70 134 l71 -7 q110 -53 142 -57 q141 259 141 412 l0 57 q-213 22 -213 -107 q0 -212 -43 -209 l-42 5 q-29 3 -29 31 l0 29 q44 748 144 738 ZM590 798 q69 -7 85 -918 q15 -1 15 -58 l-57 -38 l-29 3 q-65 6 -70 205 q0 223 29 793 l27 13 ZM1337 347 q-14 -26 -14 -41 q0 -96 27 -260 q114 110 114 189 q-83 102 -127 112 Z" /><glyph glyph-name="uni50AC" unicode="&#x50ac;" d="M1419 1716 l49 0 q-12 -20 -37 -219 q12 -184 37 -342 l61 0 q44 37 85 37 l12 0 l0 -37 q-10 -40 -145 -84 q0 -61 -74 -61 l-24 12 q-61 -17 -61 -36 q29 -25 49 -25 l0 -37 q-451 -692 -451 -729 q-30 -110 -61 -110 l-37 0 l-48 48 q0 73 328 536 q175 284 207 317 l-12 0 q-45 -38 -158 -62 q-110 24 -110 86 q0 45 25 268 q-13 18 -13 73 l25 12 l12 1 l61 -13 l0 -305 l12 -24 q55 0 220 98 q-28 267 -38 268 q16 328 86 328 ZM896 1509 q48 -18 48 -37 l0 -12 l-255 -462 q-55 -116 -159 -293 q-194 -302 -194 -353 l0 -48 q-22 0 -86 -98 q-22 -12 -50 -12 l-48 60 l0 12 q0 49 365 598 q269 532 379 645 ZM1674 1387 q86 0 86 -158 q12 0 12 -24 q0 -73 -98 -85 q-24 44 -36 219 q19 48 36 48 ZM1564 974 l14 0 q182 -58 182 -86 l0 -24 q0 -25 -24 -25 q-163 0 -207 85 l0 12 q0 18 35 38 ZM689 864 l48 0 q18 0 37 -37 l-50 -487 q0 -12 13 -12 l-13 -86 l0 -255 q0 -104 13 -305 l-13 0 l13 -24 l0 -36 q0 -18 -36 -38 l-25 0 q-36 0 -49 98 l13 0 l-13 25 l0 535 q0 12 13 12 q0 12 -13 12 l13 62 q0 334 49 536 ZM1809 682 q49 -20 49 -37 l0 -37 q-122 0 -122 -37 l0 -12 q0 -28 12 -49 q-12 -20 -12 -48 l0 -24 l85 0 q17 0 37 -38 l0 -11 q0 -22 -110 -37 l-12 -24 l0 -122 q0 -12 -13 -12 l25 -49 q90 0 146 49 l13 0 q36 -12 36 -73 q-55 -48 -85 -48 l0 12 q-147 -29 -147 -122 l-11 -86 l60 0 q28 0 49 13 q134 -20 134 -49 l0 -37 q0 -24 -24 -24 q-25 0 -25 11 q-206 -15 -232 -23 q-170 13 -170 49 l0 37 q0 16 37 35 l12 0 l61 -12 q24 41 24 72 l0 74 l-85 -12 l-110 0 l0 48 q0 21 195 74 l12 24 q-12 83 -12 135 l0 23 l-12 0 q-58 -39 -133 -49 q-50 19 -50 38 l0 11 q0 25 207 98 l0 158 q-207 -36 -231 -61 l-12 2 q-19 -2 -37 47 q169 101 451 123 ZM1139 473 q60 -26 60 -121 q0 -12 -12 -12 q21 -118 38 -451 l-13 0 q13 -23 13 -36 l-13 -146 l13 -25 l-13 -24 q25 -113 25 -182 l0 -97 q0 -18 -38 -38 q-72 0 -72 73 l0 439 q0 27 -12 48 q0 13 12 13 q-25 237 -25 511 q13 0 13 13 q-13 0 -13 12 l37 23 Z" /><glyph glyph-name="uni50BB" unicode="&#x50bb;" d="M1221 1463 q66 0 66 -43 q-66 -102 -66 -142 q94 -11 143 -11 l284 43 q230 0 230 -186 l0 -54 q0 -170 -131 -491 q17 0 43 -44 l0 -22 q-4 -22 -54 -44 q-263 85 -263 121 l0 43 l11 0 l164 -32 q142 314 142 490 l0 33 q0 98 -131 99 q-200 -11 -328 -44 l-153 33 q-71 -132 -141 -132 q22 -213 22 -479 q-20 -11 -44 -11 q-17 0 -33 33 q-11 286 -11 391 q0 62 119 208 q116 239 131 241 ZM807 1332 q49 -21 55 -44 q-58 -3 -263 -393 q-273 -418 -273 -470 l11 0 q0 17 88 77 l11 1 l0 -22 q0 -74 -121 -187 l-44 0 q-54 72 -54 99 l0 10 q72 178 327 557 q106 230 242 372 l21 0 ZM1582 1157 q44 -15 44 -33 l0 -22 q-44 0 -77 -142 q99 -41 110 -76 l0 -31 q-9 0 -65 -13 l-55 33 l-11 0 q-25 -5 -55 -75 l99 0 l54 -13 l0 -31 q0 -26 -251 -55 q0 -11 -88 -32 q-22 8 -32 8 l0 57 q174 112 174 196 l0 11 q-101 82 -218 120 q0 12 -11 32 q11 22 11 33 l22 0 q74 1 240 -98 q82 131 99 131 l10 0 ZM676 807 l11 0 q17 0 43 -44 q-43 -190 -87 -545 q0 -11 11 -11 l-22 -240 l11 -22 q-11 -75 -11 -121 l11 -22 q0 -11 -11 -11 l11 -54 l0 -12 q0 -15 -33 -32 l-32 0 q-17 0 -44 54 l32 351 q-10 21 -10 32 l10 0 q0 11 -10 11 q27 328 43 328 l-10 22 q49 316 87 316 ZM1397 601 l22 0 q22 0 22 -33 q-241 -542 -241 -656 l0 -33 l-55 -11 q-42 22 -42 33 q0 98 118 361 q126 296 176 339 ZM1221 579 l44 0 l0 -33 q-50 -107 -109 -295 l11 -22 l0 -11 q0 -84 -42 -98 l-55 1 l-22 64 q83 330 173 394 ZM1670 371 q44 -17 44 -33 l0 -32 q0 -49 -197 -383 l0 -11 q197 -283 197 -318 l-11 -42 l-22 -1 q-71 0 -164 186 l-76 76 q-48 -123 -198 -251 l-43 0 q-12 0 -66 66 q16 109 33 109 q15 0 66 -66 q83 87 164 219 q-71 99 -142 99 q-22 0 -22 21 q7 54 65 55 q63 -1 143 -76 l10 0 q88 116 164 295 q-174 -44 -229 -44 l-11 22 l0 10 q207 99 295 99 Z" /><glyph glyph-name="uni5141" unicode="&#x5141;" d="M913 1472 q25 -11 37 -12 l0 -24 l-243 -476 q-183 -294 -183 -377 l0 -12 l61 -1 q108 0 645 256 q-97 67 -97 86 l0 36 q0 24 37 24 q6 0 134 -72 l73 12 q0 -58 122 -158 q48 -82 48 -110 l0 -13 q0 -24 -24 -24 l-24 0 q-143 171 -220 171 q-339 -183 -352 -183 q0 -58 -50 -86 q-219 -683 -219 -816 q-13 0 -13 -25 l-12 0 l-61 13 q0 140 219 854 l-12 0 q-127 -62 -194 -62 l-25 0 q-109 0 -146 85 q0 55 329 622 q120 292 170 292 ZM1108 570 q50 -18 50 -35 q-38 -422 -50 -489 q34 -300 50 -315 q0 -29 96 -50 l25 12 l49 -12 l24 12 l25 -12 l256 37 q48 -19 48 -37 q0 -65 -292 -97 l-49 0 q-12 0 -12 11 l-24 -11 l-110 0 q-158 0 -158 255 l12 0 l-12 25 l0 170 q28 504 72 536 Z" /><glyph glyph-name="uni5144" unicode="&#x5144;" d="M559 1535 l25 -2 q25 -4 25 -24 q-12 -87 -12 -98 q12 -21 12 -48 l-12 0 l12 -24 l0 -98 q0 -12 -12 -12 l12 -24 l0 -50 l-12 -23 l24 -12 q42 23 183 35 l0 -12 l24 12 l231 0 q191 0 244 -97 q0 -158 -195 -304 l12 -25 l0 -24 q-149 -136 -280 -475 q-61 -85 -171 -415 q-24 -134 -24 -146 l12 -122 q-39 -24 -73 -24 l-49 36 q20 258 220 707 q159 317 159 341 l-14 0 q-48 -36 -182 -47 l-24 35 l0 24 q15 19 268 122 q243 192 243 269 q-3 33 -60 60 l-25 -12 q-22 0 -96 24 l-74 -12 l-12 1 q-28 -1 -50 11 q-199 -24 -219 -48 l-60 12 q0 -36 -12 -36 l12 -49 q0 -73 -12 -220 q0 -319 60 -572 q-12 -22 -12 -49 l-24 1 q-73 -1 -110 388 q12 25 12 38 l-12 146 l12 0 l-12 24 l0 61 q0 12 12 12 q0 13 -12 13 l12 85 l0 425 q0 220 36 222 ZM1024 413 l35 0 q25 -5 25 -25 l-60 -414 l11 -48 q-11 -38 -25 -38 l14 -61 l0 -12 q0 -12 -14 -12 q14 -48 86 -47 q121 -1 438 132 l13 0 q18 0 37 -49 q0 -44 -208 -96 q-158 -74 -317 -86 q-133 0 -133 170 q56 587 98 586 Z" /><glyph glyph-name="uni5148" unicode="&#x5148;" d="M961 1631 l49 0 q-12 -164 -12 -243 l0 -342 q159 43 159 122 q3 24 24 24 q145 -33 145 -97 q-30 -37 -206 -73 l-110 -74 l-12 -24 q12 -67 12 -97 q0 -12 -12 -12 l12 -61 q0 -66 -23 -183 q29 1 206 74 l25 0 l12 -26 l0 -36 q-84 -69 -195 -122 q0 -15 -110 -183 q-140 -241 -207 -535 q-21 0 -37 -184 q25 -40 25 -61 l-13 -72 l-24 0 q-86 0 -86 60 q0 261 281 842 l85 145 l-24 13 q-498 -146 -524 -147 l-25 37 l0 24 q0 20 184 61 q0 20 279 48 q86 0 86 232 q-12 147 -36 147 q-204 -73 -269 -72 q-99 -1 -134 84 l0 36 q122 513 122 537 q24 0 24 24 q25 -12 37 -12 q-37 -320 -109 -524 q1 -35 72 -61 q272 81 281 122 l0 158 q0 28 12 50 l-12 23 q9 378 48 378 ZM1083 266 l25 0 q25 -4 25 -24 q-25 -122 -25 -220 l0 -12 l-25 -36 q12 -65 12 -109 q0 -12 -12 -13 q23 -57 50 -61 l219 0 q254 18 256 85 q0 11 -13 98 q13 24 13 36 q-13 23 -13 36 q13 22 13 49 l24 1 q31 -1 86 -269 q0 -61 -306 -133 l0 12 l-97 -25 q-13 0 -37 12 q-84 -12 -133 -12 q-74 0 -135 110 q-12 23 -12 36 q33 439 85 439 Z" /><glyph glyph-name="uni5149" unicode="&#x5149;" d="M913 1437 l12 0 q24 0 98 -463 q-13 -123 -36 -123 l-26 0 q-24 2 -48 147 l12 25 l-48 219 l0 158 q0 18 36 37 ZM1254 1255 l49 -1 l13 -59 l0 -147 q-24 -173 -183 -307 l24 2 q115 73 231 72 l25 -36 l0 -24 l-195 -86 q-428 -429 -560 -866 l0 -24 l23 -36 l0 -14 q-23 -110 -61 -108 l-37 -2 q-18 0 -35 38 l0 60 q49 356 487 891 l0 12 l-12 0 q-79 -24 -110 -24 l0 12 q-147 -73 -537 -110 l-12 25 l0 48 l623 135 q66 0 72 73 q184 126 184 451 q11 0 11 25 ZM620 1181 l25 0 q66 -49 232 -402 q-19 -49 -38 -50 l-36 0 q-36 51 -36 98 q-78 66 -171 329 l0 12 l24 13 ZM1193 425 l13 0 l12 -49 q-25 -295 -25 -414 l0 -49 q0 -110 195 -110 q44 0 110 12 l24 -12 q76 0 148 62 l48 0 l12 -50 q0 -110 -293 -110 l-146 0 q-131 0 -195 136 q0 235 61 561 l36 23 Z" /><glyph glyph-name="uni515A" unicode="&#x515a;" d="M980 1485 l25 0 q85 -279 85 -341 l-12 1 l12 -25 l0 -13 l-37 0 q-31 0 -97 366 l24 12 ZM1407 1473 l36 0 l0 -50 q-23 -118 -219 -339 l-12 0 l0 -13 l12 0 q203 49 427 49 q109 0 109 -98 q0 -150 -329 -341 q-76 0 -219 -183 q-232 -121 -232 -195 q-110 -369 -159 -634 q-13 0 -36 -12 q-36 9 -48 49 q41 260 182 622 q-61 -7 -61 -97 l-49 -1 q-18 0 -36 49 q26 523 85 586 l12 -1 l25 -13 l-13 -146 l0 -36 q129 48 402 72 q24 0 73 -60 q330 227 330 353 l0 24 l-62 13 q-374 0 -1170 -244 l-11 -24 q-12 -549 -49 -549 l-49 0 l-12 49 q37 731 86 731 l12 0 q23 -3 23 -24 l0 -122 l-11 -23 l24 -1 q185 80 414 134 l-219 232 l0 48 l12 0 q22 0 256 -220 l0 37 q17 0 37 -73 q203 0 329 268 q110 142 110 183 ZM870 376 l12 0 q187 56 378 293 l-24 1 q-156 -1 -366 -62 l0 -232 ZM1102 303 l36 0 q46 -657 122 -657 l12 0 q125 0 353 219 q-12 0 -12 12 l38 0 q23 -5 23 -24 l0 -14 q0 -123 -340 -268 l-62 0 q-182 0 -182 392 l0 60 q0 71 12 195 q-12 23 -12 36 q12 0 12 12 l-24 1 l0 12 q3 24 24 24 Z" /><glyph glyph-name="uni5165" unicode="&#x5165;" d="M642 1142 l74 0 q222 0 1077 -929 q59 -51 59 -118 q-15 -89 -45 -89 l-44 0 q-208 297 -369 472 q-540 590 -708 590 q-37 0 -162 -44 l-15 29 l0 30 q20 59 133 59 ZM937 847 q29 -5 29 -30 l0 -14 q0 -247 -501 -679 q-96 -29 -133 -29 q-23 0 -59 59 l0 73 q34 73 133 148 l15 -30 q0 -28 -30 -103 l15 0 q324 191 516 590 q0 15 15 15 Z" /><glyph glyph-name="uni516B" unicode="&#x516b;" d="M1008 951 q102 7 399 -283 q399 -286 407 -404 q-22 -88 -97 -93 q-35 -2 -296 290 q-43 15 -411 455 l-2 35 ZM726 776 l35 3 q78 -136 80 -167 q12 -169 -368 -422 l-51 -4 q-25 -2 -55 48 l-4 52 q-2 29 262 207 q112 133 101 283 Z" /><glyph glyph-name="uni516C" unicode="&#x516c;" d="M779 1168 l61 0 l0 -13 q-61 -101 -171 -524 q-131 -404 -158 -536 l-24 -12 l-25 1 q-18 -1 -37 48 q0 31 220 682 q48 196 134 354 ZM1157 1155 q51 0 244 -109 q222 -89 268 -182 q0 -66 -49 -86 q-11 0 -11 12 l-26 -12 l-12 1 l0 60 q-222 179 -427 268 q0 13 -60 13 l0 23 q9 0 73 12 ZM1132 814 l25 0 l0 -11 q0 -25 -98 -184 q-121 -319 -182 -585 q0 -32 61 -59 q25 -1 231 133 q57 19 171 122 q-37 11 -37 73 q4 25 24 24 l86 1 q56 -1 146 -318 q12 1 12 -61 q-24 -56 -48 -61 l-12 0 q-20 4 -86 220 q-31 0 -36 48 l-25 0 q-78 -46 -170 -146 l-220 -122 l-36 1 q-147 12 -147 121 q180 694 293 756 q0 19 48 48 Z" /><glyph glyph-name="uni5171" unicode="&#x5171;" d="M1304 1521 l12 0 q25 -3 25 -24 q0 -39 -37 -255 q12 -66 12 -110 l0 -134 q170 24 170 73 l38 0 q24 -4 24 -25 l0 -12 q-136 -121 -232 -121 l0 -74 q0 -67 -12 -170 l12 -24 q-12 -128 -37 -245 q12 0 12 -12 q200 50 341 61 l13 -24 l0 -12 q0 -25 -256 -85 q-478 -123 -926 -171 q0 14 -12 37 q0 60 365 96 q391 58 391 123 q11 204 11 316 l0 147 q-268 -15 -268 -49 l0 -464 l-36 0 q-41 0 -61 196 l13 60 l0 184 l-13 24 q-102 -37 -231 -48 l-25 36 q0 47 269 85 l0 171 q0 185 35 340 l37 1 q25 -4 25 -24 q0 -31 -25 -134 q12 -84 12 -134 q0 -13 -12 -35 l12 -75 l0 -86 q281 28 281 62 l0 121 q0 414 73 414 ZM999 108 l25 0 q24 -5 24 -24 l0 -12 q-39 -7 -85 -184 l12 -23 q-12 -236 -12 -305 q-50 -24 -73 -24 q-43 43 -50 145 l13 0 l-13 25 l0 49 q74 244 74 268 l85 85 ZM1486 108 l13 0 q97 -29 121 -402 l-24 -12 l-48 0 q-37 192 -97 390 l35 24 Z" /><glyph glyph-name="uni5173" unicode="&#x5173;" d="M1191 1416 l39 0 q40 0 64 -129 q0 -185 -259 -363 l-13 0 q-25 0 -25 25 q161 202 181 338 l-13 116 l26 13 ZM777 1300 l25 0 q130 -121 130 -324 l0 -13 q0 -26 -27 -26 l-38 0 q-32 0 -90 310 q-27 0 -27 27 q5 26 27 26 ZM1320 924 l25 -38 q0 -46 -620 -169 l-13 26 q55 38 608 181 ZM1138 717 q27 -47 27 -116 q0 -111 -27 -182 l14 0 q156 39 453 65 l26 -38 l0 -27 q0 -21 -466 -78 q-53 0 -168 -375 q-165 -298 -325 -298 q-142 13 -142 116 l13 0 q52 -25 52 -38 q244 0 427 557 l-479 -117 l-38 0 q-21 0 -53 52 l0 13 q4 25 26 25 q42 -25 65 -25 q192 75 517 156 q59 310 78 310 ZM1294 226 q167 -102 349 -532 l0 -65 q0 -19 -51 -51 l-27 0 q-47 0 -77 194 l-220 440 l26 14 Z" /><glyph glyph-name="uni5175" unicode="&#x5175;" d="M1005 1332 l50 0 q-2 -15 -124 -85 q0 -13 -12 -36 q17 0 220 61 q122 37 147 37 l24 -13 q22 13 48 13 l13 0 q30 -37 49 -37 l0 -12 q0 -21 -62 -37 l-72 11 q-46 -21 -293 -72 q-122 -23 -122 -147 q-12 -164 -12 -230 l12 -1 q98 49 268 85 l0 -12 l305 74 q24 -5 24 -26 l0 -23 q-158 -61 -158 -86 q-12 0 -12 -37 l0 -35 q0 -42 12 -62 q0 -292 -74 -292 q-18 0 -36 37 l13 23 q0 25 -13 25 l13 85 l0 244 l-50 0 q-304 -56 -304 -194 q6 -306 48 -306 q66 1 561 98 l146 0 q18 0 37 -37 l0 -12 q0 -23 -121 -36 q-13 0 -13 12 l-61 -12 l-85 0 q-29 -25 -475 -110 q0 -24 -25 -24 l-85 11 q-113 -11 -317 -61 q-25 40 -25 61 q43 25 342 75 q0 11 12 11 q-25 133 -25 305 l0 109 q0 160 25 415 l-12 0 q-126 -36 -184 -36 l-12 23 q0 26 231 98 q49 158 184 158 ZM1407 65 q158 -58 158 -305 q0 -17 -35 -36 l-26 0 q-40 0 -72 183 q-49 79 -49 122 l0 12 q4 25 24 24 ZM749 -33 l12 0 l-12 -85 l0 -60 l24 -38 l0 -48 l-61 -12 l-49 12 l0 24 l-12 74 q22 133 98 133 Z" /><glyph glyph-name="uni5180" unicode="&#x5180;" d="M1446 1682 q79 0 152 -140 q23 -1 81 -94 q36 0 36 -48 l-258 -116 l-11 -71 l0 -12 q9 -93 82 -92 l199 34 q23 -12 35 -12 q0 -94 -129 -93 q0 -24 -116 -36 q-129 35 -165 118 l0 118 l-11 23 q-44 -25 -94 -25 l-35 0 q-24 0 -24 25 q0 46 176 92 q26 329 82 329 ZM861 1599 q35 -44 35 -105 l0 -128 l57 11 l13 -59 q-55 -22 -83 -128 q0 -12 13 -12 q-24 -199 -59 -199 l-24 0 q-22 0 -22 23 l0 211 l-12 0 q-363 -93 -422 -93 l-24 35 q9 30 469 152 l0 280 l59 12 ZM1481 1576 l-24 -187 l11 -1 q141 31 141 60 q-104 127 -128 128 ZM1047 967 l12 -23 l0 -12 q0 -9 -81 -82 l0 -58 l11 0 q38 0 304 46 l164 1 q176 0 176 -105 q-66 -262 -141 -397 q0 -51 -24 -130 l13 0 q83 23 93 23 l12 0 q23 -3 23 -23 q-2 -24 -175 -106 l-35 -130 l12 0 l210 36 q47 -17 47 -34 l0 -11 q0 -17 -35 -36 l-24 11 q-56 0 -351 -128 l-432 -118 q-123 -23 -153 -23 l-23 12 q-21 -12 -47 -12 l-24 35 l0 12 q31 40 339 82 q73 31 211 70 l0 12 q-12 105 -23 128 q-208 -58 -234 -58 l-24 36 l0 11 q0 26 82 46 l0 13 q-61 70 -69 233 q11 379 11 504 q-234 -117 -269 -117 l-36 0 q-16 0 -35 36 q0 56 434 210 q0 23 81 46 ZM1341 757 q-36 -43 -36 -82 l0 -59 q39 24 71 24 q23 -4 23 -24 q-141 -121 -141 -234 q223 0 223 164 q58 147 58 176 l0 11 l-198 24 ZM953 441 l13 0 q35 34 211 94 l23 23 q12 147 12 175 l-12 0 q-234 -36 -234 -82 q-13 -111 -13 -210 ZM1071 394 l-93 0 l-25 12 q0 -62 60 -259 l0 -70 q104 0 104 106 q21 164 60 164 l23 12 q-23 82 -35 82 l-94 -47 ZM1188 147 l24 -11 q164 31 164 59 l0 23 q-47 0 -47 23 l0 24 l23 36 l0 11 q-164 -1 -164 -165 ZM1200 31 q12 -112 23 -129 q93 20 93 130 q13 -1 13 45 l-13 1 q-116 -23 -116 -47 ZM1503 -239 q36 0 95 -162 q33 -2 46 -118 q-11 -20 -11 -46 l-47 -1 q-18 3 -105 246 l0 11 q0 21 22 70 ZM1517 -332 l0 -23 q26 -71 46 -70 q-14 93 -46 93 ZM1047 -344 l0 -23 q-46 -71 -46 -141 l0 -35 l23 -36 l0 -35 l-58 -11 l-13 0 q-46 20 -46 82 q0 136 140 199 Z" /><glyph glyph-name="uni519B" unicode="&#x519b;" d="M505 1590 l61 0 l0 -13 q-12 -270 -12 -293 l0 -11 l12 0 q0 76 366 109 q118 37 415 49 q197 0 256 -110 l0 -12 q0 -153 -245 -342 q-34 0 -145 -85 l-37 0 l0 61 l-25 0 q-104 -48 -231 -511 l24 -1 q207 42 207 86 q0 11 -24 207 l24 12 l36 0 q26 0 62 -184 l12 0 q134 75 172 74 l23 0 q25 -3 25 -24 l0 -12 q-22 -42 -146 -86 q-74 -41 -74 -85 q-12 -87 -12 -147 l24 -11 q190 48 208 72 q0 37 24 37 l73 0 q20 1 48 -49 l0 -37 q-369 -121 -377 -121 l0 -24 q0 -105 -12 -366 l-12 -1 q0 -12 12 -12 q0 -291 -86 -292 l-36 0 l-37 49 l0 36 q61 18 61 219 q12 169 12 367 l-12 0 q-442 -124 -537 -124 q-32 0 -60 63 q0 32 85 47 q21 -12 49 -12 q242 38 475 122 q0 26 13 26 l-13 60 l0 61 l-48 0 q-88 -61 -147 -61 l-109 0 q0 19 -25 49 l0 24 q0 111 122 415 l-24 1 q-117 -38 -147 -38 l-49 0 l0 37 q317 70 317 256 q58 219 146 219 q38 0 74 -182 l86 -37 q78 48 146 182 l0 37 q0 37 -184 73 q-557 -64 -707 -134 l-48 24 l0 -110 q29 -462 110 -462 l0 -123 l-50 0 q-100 0 -145 537 l0 268 q2 124 24 123 q0 12 -12 12 q24 91 24 98 ZM1176 1089 q-49 -68 -49 -85 l12 0 q51 17 74 61 l-37 24 Z" /><glyph glyph-name="uni51B2" unicode="&#x51b2;" d="M1353 1363 l24 0 q37 -6 37 -96 l0 -378 q0 -24 37 -25 l60 12 q244 -33 244 -98 l0 -37 q0 -112 -256 -280 l-110 -98 l-24 -231 q0 -12 12 -12 l-24 -244 q12 -20 12 -61 l-12 0 l12 -24 q0 -79 -72 -98 q-25 12 -38 13 l0 122 q0 11 12 11 q0 13 -12 14 q24 125 24 450 l0 12 q-12 0 -84 -61 l-61 12 l0 37 q0 12 171 134 l0 170 l11 148 l-23 11 q-44 0 -110 -11 q-25 12 -38 11 l-109 -73 q0 -19 -25 -48 q0 -109 62 -415 l-25 -12 l-49 0 q-58 83 -98 658 l0 98 q10 110 37 111 l37 -1 l12 -86 l0 -195 q341 55 341 85 l0 37 q0 36 -12 36 l12 61 l0 183 q0 44 -12 110 q18 49 37 48 ZM560 1011 l12 -1 q135 -19 135 -62 l0 -23 q-37 0 -37 -12 l-61 12 l-122 0 q-44 -37 -85 -36 l-49 -1 l-12 48 q89 74 219 75 ZM1414 791 l0 -12 q0 -52 -25 -269 l12 0 q25 0 25 37 l60 0 q172 110 172 208 q0 23 -244 36 ZM816 657 l37 0 l0 -38 q-80 -235 -244 -499 q-50 -184 -146 -183 l-12 -1 q-25 0 -25 26 l158 268 q232 397 232 427 Z" /><glyph glyph-name="uni51B3" unicode="&#x51b3;" d="M1297 1478 l36 2 q17 0 37 -39 q-32 0 -73 -219 q-13 0 -13 -12 l25 -12 l110 0 q26 0 48 12 q146 -15 146 -121 q-69 -176 -426 -390 l0 -62 q237 86 511 244 l0 36 l37 0 l13 -60 q-90 -91 -257 -157 q-1 -22 -158 -73 l-183 -99 q-70 -185 -122 -658 q49 -9 49 -24 q-9 -268 -61 -267 l-36 -1 q-37 6 -37 85 q0 339 85 767 l0 61 l-12 1 l-134 -37 q-61 16 -61 36 l0 25 q0 24 147 73 q146 88 146 244 q36 98 60 280 l-60 -1 q-28 1 -48 12 l-26 -12 q-122 31 -122 62 q5 24 25 24 l244 0 q18 2 110 280 ZM1199 784 l13 0 q80 49 291 256 q0 18 26 49 l0 23 l-147 12 q-147 0 -147 -170 q-23 0 -36 -170 ZM382 1053 q390 -41 390 -172 l-35 -24 q-50 56 -379 122 l0 61 q24 1 24 13 ZM809 711 l12 0 l0 -25 q-89 -125 -231 -268 q-93 -165 -208 -291 l-36 -2 l-12 26 l0 48 q121 185 475 512 ZM1405 370 q355 -494 355 -561 q0 -49 -50 -73 l-12 0 q-12 0 -73 158 q-189 220 -268 427 l48 49 Z" /><glyph glyph-name="uni51C6" unicode="&#x51c6;" d="M1169 1619 l13 -24 l0 -13 q-77 -154 -440 -475 l-72 0 l0 49 q434 463 487 463 l12 0 ZM1217 1375 l14 0 q52 -34 255 -48 l24 -36 l0 -25 q-293 45 -293 97 l0 12 ZM926 1180 l23 0 q25 -3 25 -24 q12 -1414 25 -1706 l-25 -12 l-36 1 q-37 -1 -37 132 l0 475 q0 750 25 1134 ZM267 1120 l25 0 q366 -152 366 -256 q-58 -52 -110 -86 l-13 0 q49 60 49 86 q-2 51 -304 218 l-13 25 l0 13 ZM1522 1071 l62 0 q24 -4 24 -25 l-24 -36 l-50 12 q-292 -48 -341 -47 l-24 -1 q-24 0 -24 23 q0 28 60 37 l-12 -24 q236 61 329 61 ZM1450 986 l36 0 l13 -86 l0 -122 q102 25 121 25 l24 -37 l0 -11 q-18 0 -48 -26 l-24 14 l-73 -14 l0 -316 q145 31 145 73 l24 0 q25 -4 25 -25 l0 -12 q0 -32 -183 -96 l0 -25 q24 -140 24 -196 l0 -24 q0 -24 -60 -24 q-37 90 -61 232 l-12 -1 q-79 -25 -110 -25 l-74 0 q-24 2 -24 26 l12 60 l26 0 l0 -13 q-14 -22 -14 -35 l14 0 q19 0 182 48 l0 317 l-12 0 q-163 -62 -208 -60 l-11 -2 q-25 0 -25 26 q3 23 25 23 l23 -11 q194 86 220 86 q0 72 25 231 ZM621 486 l11 0 q-159 -378 -255 -378 q-32 0 -62 61 l14 73 l12 0 q12 -48 12 -86 l12 0 q43 24 183 257 l73 73 ZM1778 72 l13 0 q17 0 37 -37 q0 -37 -439 -110 l-122 0 q-134 0 -134 37 l12 24 l146 -12 q121 0 487 98 Z" /><glyph glyph-name="uni51E0" unicode="&#x51e0;" d="M686 1229 q0 -12 12 -12 q0 -22 -24 -97 l12 -25 l-12 -49 l12 -110 l-12 -85 q0 -25 12 -25 l-12 -121 l0 -305 l-12 -72 l12 -25 l-12 -60 l12 -50 q-12 -20 -12 -48 q12 -22 12 -49 l-12 1 q0 -12 12 -13 l-12 -109 q12 -65 12 -74 q-25 -74 -48 -74 l-38 0 q0 21 -48 122 q34 0 74 1256 q39 24 72 24 ZM821 1023 q205 122 370 -48 q-17 -238 -17 -318 q-6 -159 -25 -159 q0 -12 13 -12 q-37 -127 -30 -359 q0 -159 60 -159 l361 143 l0 -25 q-25 -51 -275 -216 l-24 13 l-73 -13 q-115 1 -135 172 l0 36 q43 464 43 541 q32 380 -80 380 q-116 -75 -201 -75 q0 -18 -36 -36 l-25 0 q-28 0 -36 60 q55 74 110 75 Z" /><glyph glyph-name="uni51FA" unicode="&#x51fa;" d="M1039 1371 l16 0 q60 0 60 -260 l0 -290 q307 70 307 123 q10 213 61 213 l15 0 q59 0 76 -489 q-31 -92 -61 -92 l-46 0 q-61 25 -61 108 l0 92 l-15 0 q-83 -53 -276 -123 l0 -580 l-14 -107 q201 91 290 91 q-15 180 -15 260 l0 60 q4 31 30 31 q168 -222 168 -564 q-10 -77 -45 -77 l-62 0 q-61 15 -61 152 q-410 -168 -596 -168 q-229 0 -229 153 q56 323 152 459 l16 0 q31 -4 31 -31 l0 -31 q0 -77 -61 -397 l45 0 q184 0 184 45 q31 324 31 658 l-16 0 q-162 -46 -275 -46 q-168 11 -168 123 q50 382 107 382 l15 0 q31 -6 31 -31 l0 -306 l76 0 q92 0 230 47 l0 412 q0 183 60 183 Z" /><glyph glyph-name="uni51FB" unicode="&#x51fb;" d="M1134 1464 l46 0 q76 0 76 -322 l0 -168 q138 28 138 77 l61 0 q31 -5 31 -31 l0 -15 l-230 -123 l0 -352 l16 0 q413 107 490 107 l30 -46 l0 -30 q0 -31 -505 -138 q0 -16 -31 -16 l16 -30 l0 -352 q245 85 245 153 q0 168 61 168 l15 0 q67 0 77 -597 l-61 -46 l-31 0 q-61 25 -61 107 l0 245 l-16 0 q-229 -107 -229 -168 q0 -22 -46 -46 q-12 0 -92 15 q-165 -138 -291 -138 q-123 49 -123 138 q62 89 138 444 l31 16 l30 -46 l0 -414 q194 92 215 92 l-15 77 l0 352 q-124 -46 -781 -138 l-46 0 q-31 0 -31 31 l0 30 l15 0 q16 0 16 -15 q755 184 827 214 q15 27 15 62 l0 290 l-15 0 q-155 -45 -215 -45 q-92 15 -92 45 q16 0 16 16 l30 -16 l46 0 q245 28 245 123 l31 444 q-22 0 -46 46 Z" /><glyph glyph-name="uni5200" unicode="&#x5200;" d="M1333 1291 q190 -1 231 -159 q0 -56 -255 -988 q0 -72 -36 -72 l-12 0 q-72 0 -98 353 q12 22 12 49 l24 -1 q48 -128 48 -170 l26 0 q0 7 206 779 l0 74 q-50 49 -122 49 l-145 0 l-61 -13 l24 -35 q0 -61 -24 -62 l-62 12 q-118 -221 -255 -804 q-119 -310 -122 -525 l-25 -12 l-36 0 q-21 0 -37 61 q0 70 256 878 q98 387 158 451 l0 12 l-12 0 l-341 -97 l-48 11 l-86 2 q-12 23 -12 36 q32 22 268 60 q325 111 536 111 Z" /><glyph glyph-name="uni5207" unicode="&#x5207;" d="M588 1448 l54 0 q53 -18 53 -106 l0 -301 l212 71 l35 -54 q0 -34 -247 -123 l0 -689 q162 180 335 302 l0 -19 q-250 -435 -353 -494 l-71 0 q-35 0 -35 35 q17 231 17 830 q-184 -106 -283 -106 l-35 0 q-35 0 -35 35 q46 114 88 124 l18 0 l0 -36 l-18 -35 l35 0 q248 99 248 176 q18 111 18 248 l0 106 l-36 0 l0 36 ZM1737 1147 q123 -18 123 -194 l0 -159 q-118 -1006 -283 -1006 q-205 134 -283 353 q-244 -398 -334 -478 q-31 -17 -70 -17 l-19 0 q-35 0 -35 35 l0 124 l35 0 l0 -54 l19 0 q316 358 546 1061 q-35 57 -35 88 l35 17 l18 0 q70 -23 70 -158 l-230 -601 q245 -212 265 -212 l18 0 q195 618 195 1024 q0 88 -71 88 q-172 0 -547 -176 l-71 0 q-35 0 -35 35 l18 36 l35 -18 q392 212 636 212 Z" /><glyph glyph-name="uni5211" unicode="&#x5211;" d="M1011 1331 q78 -23 85 -22 l0 -37 q-276 -62 -305 -62 l0 12 q-104 -36 -365 -85 q-23 0 -23 25 l0 11 q0 61 572 158 l36 0 ZM1669 1283 l24 0 q49 0 97 -488 l-12 0 q0 -11 12 -11 q12 -371 12 -549 l0 -145 q0 -220 -24 -365 l-60 0 q-30 23 -49 23 l0 38 q0 23 36 23 q13 183 13 268 l0 122 q0 28 -13 50 q13 22 13 35 q0 440 -61 840 l12 0 q-25 41 -25 74 l0 60 q4 25 25 25 ZM889 1150 l50 0 q23 -5 23 -26 l0 -158 q0 -27 -12 -49 q12 -20 12 -48 l0 -85 l13 0 l61 37 l12 0 q24 -5 24 -26 l0 -36 q-99 -47 -110 -48 q0 -11 13 -97 q0 -28 -13 -50 q13 -82 13 -134 l0 -72 q0 -28 -13 -49 q21 -114 37 -536 q-12 -24 -12 -37 l-12 0 q-74 0 -74 73 q0 13 12 13 l-24 291 l12 0 l-12 26 l0 219 q0 27 -12 49 q0 11 12 11 l-12 122 l0 122 l-60 0 q-70 -48 -195 -73 l-37 -182 q12 -24 12 -37 q0 -7 -12 -159 l12 -24 q0 -12 -12 -12 q0 -164 60 -243 l0 -13 q0 -28 -60 -37 q-85 0 -85 341 l0 86 q0 12 12 12 l-12 24 l12 62 l-12 23 l12 74 l0 72 l-36 -24 q-12 0 -12 12 l-61 -12 l-74 0 q-17 0 -36 37 l0 12 q0 25 121 37 l0 -12 q122 0 122 85 q24 294 61 389 l37 0 q24 0 24 -36 q-27 -260 -48 -378 q23 -12 35 -12 q67 0 232 61 l-12 170 q0 71 24 245 ZM1377 943 l36 1 l37 -282 l-13 0 l62 -268 l0 -49 q0 -24 -37 -24 q-88 0 -122 474 q12 148 37 148 Z" /><glyph glyph-name="uni521A" unicode="&#x521a;" d="M372 1308 q61 0 61 -232 l0 -12 l12 1 q434 206 584 206 l86 0 q108 -72 108 -292 q13 0 25 -195 l-12 -73 q0 -14 12 -37 q-12 -66 -12 -109 l0 -13 q0 -84 12 -97 q-12 -83 -12 -134 l0 -158 q0 -390 -85 -390 l-36 0 q-191 119 -219 171 q0 14 -62 73 l0 25 q55 0 195 -110 l86 -25 l23 110 q0 12 -11 12 q24 126 24 451 l0 316 l-13 61 l13 0 q-28 228 -62 305 l-84 12 q-175 0 -536 -208 q-53 -44 -62 -157 q71 0 134 -97 q117 -125 171 -160 q78 244 146 354 l73 -1 l0 -23 q-113 -269 -145 -414 q219 -164 219 -233 l-37 -24 l-37 0 l-182 147 l-12 0 q-53 -123 -86 -268 l13 -25 q0 -73 -85 -73 l-13 0 q-9 0 -37 37 q12 82 122 401 l0 25 q-102 94 -244 256 l-35 -390 q11 -165 11 -205 q-9 -281 -48 -282 l-37 0 q-36 12 -36 73 l0 97 l73 927 l0 60 q0 28 12 49 q0 12 -12 12 l12 61 l0 170 q3 25 25 25 ZM1711 1234 l25 0 q97 0 97 -950 l-13 0 q0 -11 13 -11 l-13 -62 l0 -48 q0 -281 -23 -415 l-61 0 q-45 0 -74 184 q61 0 61 97 q13 36 13 171 l0 182 q0 707 -62 707 l0 109 q0 18 37 36 ZM1468 809 q96 -234 96 -269 l0 -24 q0 -12 -12 -12 l12 -24 q-29 -122 -48 -122 l-36 0 q-49 0 -61 414 l49 37 Z" /><glyph glyph-name="uni5229" unicode="&#x5229;" d="M1626 1485 l25 1 q85 -50 85 -330 l0 -72 q0 -38 13 -38 l-13 -60 l0 -196 q0 -27 13 -49 l-13 -24 q13 -21 13 -48 l-13 -24 q0 -14 13 -14 l-13 -60 l0 -208 q-39 -792 -158 -792 l-13 0 q-78 0 -171 25 l0 49 l110 0 q147 1 147 890 l0 98 q0 12 12 12 l-12 25 l0 353 q0 289 -61 426 q0 17 36 36 ZM786 1327 l109 0 q158 0 158 -85 l-60 -12 l-74 0 q0 -28 -12 -49 q0 -13 12 -13 q-24 -172 -24 -243 q252 69 256 97 l37 0 q24 -3 24 -24 l0 -24 q-30 0 -232 -98 q-92 -25 -97 -25 l0 -61 l12 0 q41 25 73 25 q24 -12 37 -12 l0 -25 q0 -19 -74 -49 q-97 -84 -97 -439 l0 -85 q13 -268 49 -390 l-12 0 l12 -24 q0 -63 -36 -74 q-86 0 -86 110 l0 207 q0 77 -12 184 q12 37 12 145 l0 50 l-24 0 q-268 -455 -268 -525 q23 -40 23 -61 q-48 -70 -48 -84 l-50 0 q-17 0 -35 36 l0 48 q0 120 427 842 l-13 24 q13 66 13 110 q0 24 -25 24 q0 -37 -390 -86 q-25 40 -25 62 q25 24 207 36 q17 10 245 61 q23 286 23 342 q-39 0 -60 12 q-221 -49 -243 -49 l-14 25 l0 24 q0 35 282 73 ZM1358 864 q110 -162 110 -245 l0 -12 q0 -24 -24 -24 l-24 0 q-34 0 -124 232 l0 36 l62 13 ZM957 510 l48 0 q80 -63 146 -207 l0 -13 q0 -24 -24 -24 l-24 0 q-172 158 -172 232 l26 12 Z" /><glyph glyph-name="uni522B" unicode="&#x522b;" d="M529 1532 q28 -27 65 -280 q95 37 395 66 q99 0 99 -115 q0 -118 -165 -345 l0 -16 q66 0 66 -33 l0 -50 q-17 -49 -98 -49 l16 -33 q-55 -61 -82 -230 l16 0 q90 16 148 16 l99 0 q66 -26 66 -115 l0 -148 q0 -285 -165 -411 l-50 0 q-155 0 -180 312 l-17 0 q-58 -494 -99 -494 l-16 0 q-23 0 -48 50 l0 99 q0 120 114 575 l-329 -131 l-33 0 l0 17 q94 100 395 213 q49 209 99 263 l-18 0 q-149 -33 -180 -33 l16 -197 l-49 -33 l-15 0 q-84 0 -84 509 q0 141 -32 215 q17 89 17 147 l0 182 q0 24 49 49 ZM1630 1236 l33 0 q99 0 99 -1382 l-66 -50 q-97 0 -164 150 q17 0 17 15 l81 -49 l18 0 l0 16 q0 394 -18 1234 q-32 0 -32 33 q5 33 32 33 ZM594 1137 q16 -222 16 -328 l0 -17 l17 0 q312 226 312 394 l-345 -49 ZM1433 858 q65 0 65 -461 q0 -24 -48 -49 q-27 0 -66 66 l0 81 q0 18 16 18 l-16 32 l0 264 q0 23 49 49 ZM759 183 q100 -280 164 -280 q132 140 132 412 l0 66 l-50 0 q-213 0 -213 -83 q-11 -115 -33 -115 Z" /><glyph glyph-name="uni5230" unicode="&#x5230;" d="M1608 1318 l13 1 l44 -22 q4 -52 34 -266 q105 -1376 -7 -1380 l-56 -5 q-63 33 -184 237 l13 1 q125 -87 146 -86 q13 196 -31 1507 l28 13 ZM1020 1265 q55 -20 55 -40 l0 -29 q0 -27 -298 -113 q-307 -443 -307 -515 l15 0 q65 0 403 209 q-21 0 -96 97 l0 27 q0 29 40 29 q173 -42 362 -265 l0 -69 q0 -32 -69 -42 q-21 0 -195 167 q0 -44 -69 -84 l27 -208 l168 14 l13 -28 l0 -14 q-1 -16 -194 -126 l0 -152 l-14 -98 l14 0 q165 56 208 56 l28 0 q19 0 41 -42 q0 -68 -584 -195 l-98 0 q-26 0 -26 28 l0 14 q0 18 319 111 l-14 69 l0 98 l14 98 q-86 -70 -167 -70 l-13 0 q-76 0 -113 70 l0 13 q0 25 307 126 q0 89 15 180 l-15 0 q-209 -125 -292 -125 l-84 0 q-22 0 -55 56 l0 27 q0 134 333 530 l0 14 l-194 0 q-107 0 -125 55 q5 28 27 28 l83 0 q136 0 550 99 ZM1347 818 l14 0 q70 -15 70 -472 l-41 -29 l-14 0 q-70 0 -70 404 l0 13 q9 84 41 84 Z" /><glyph glyph-name="uni524D" unicode="&#x524d;" d="M1194 1502 l14 0 q41 0 68 -126 q0 -115 -306 -277 l15 0 q453 82 707 82 l28 -40 l0 -29 q0 -27 -541 -82 l-750 -153 q-55 21 -55 42 q0 67 514 166 q-70 112 -70 347 l29 13 l13 0 q28 0 84 -235 l26 14 l15 0 l0 -69 q209 172 209 250 q0 36 -29 82 l29 15 ZM1540 864 q109 0 139 -1166 q0 -57 -70 -84 q-80 32 -153 180 q5 28 29 28 q6 -29 69 -55 q-28 702 -28 929 q-15 0 -41 15 q13 153 55 153 ZM790 849 l14 0 q29 -4 29 -28 l0 -138 l14 0 q122 68 194 68 l27 0 q126 0 126 -818 l0 -264 q0 -19 -43 -41 l-14 0 q-92 0 -222 250 l-13 0 l0 41 l13 0 q139 -152 153 -152 l14 0 l0 569 l-14 0 q-53 -42 -264 -83 l0 -154 q144 14 166 29 q84 -19 84 -42 q-66 -50 -250 -84 l0 -153 q0 -89 14 -277 l-41 -27 q-70 0 -70 167 l0 250 q0 12 -27 111 q27 0 27 26 l0 111 l-14 0 l-55 -41 l-14 28 l0 13 q0 41 83 140 q15 123 15 153 l-15 68 q51 278 83 278 ZM818 600 l0 -237 l195 56 q23 -14 55 -14 l0 69 q0 90 -27 195 q-61 0 -223 -69 ZM1388 530 l27 0 q28 -4 28 -27 l0 -153 q0 -47 13 -71 l-13 -82 l0 -84 q0 -19 -42 -40 l-27 0 q-29 0 -29 26 l0 70 q0 361 43 361 Z" /><glyph glyph-name="uni529B" unicode="&#x529b;" d="M1096 1328 l61 -13 l0 -25 q-65 -56 -134 -390 l25 0 q257 74 365 75 l24 -1 q102 0 123 -147 q0 -117 -123 -658 q-35 -330 -133 -330 q-110 108 -110 207 l0 38 l36 0 q0 -14 62 -110 l24 1 q48 143 146 718 q12 0 12 86 l0 37 q0 53 -49 72 q-55 0 -402 -73 q-78 -126 -122 -378 q-110 -284 -170 -549 q-69 -159 -98 -159 l-12 2 q-61 26 -61 122 q0 26 85 60 q122 307 256 853 q-159 0 -304 -97 l-25 0 q-17 0 -37 36 l0 12 q0 40 244 111 q183 20 183 133 q81 367 134 367 Z" /><glyph glyph-name="uni529F" unicode="&#x529f;" d="M1523 1387 l24 0 q24 -3 24 -24 q-48 -44 -158 -512 q42 25 170 37 q207 -45 207 -207 q-95 -491 -207 -706 q0 -43 -60 -98 q-68 0 -98 86 l0 96 l-12 75 q12 18 12 72 l25 0 q32 0 49 -171 l24 -12 q182 525 182 646 q0 109 -146 134 q-183 -25 -183 -86 q-97 -363 -182 -986 l-12 0 l12 -24 q0 -17 -36 -36 l-25 -1 q-37 13 -37 74 l196 973 l0 24 l-13 0 q-220 -48 -269 -48 l-23 36 l0 26 q57 23 255 60 q104 0 134 182 q82 390 147 390 ZM927 1058 l23 -36 l0 -25 q-199 -67 -207 -97 q0 -44 12 -110 q0 -12 -12 -12 l12 -85 l0 -207 q0 -64 -12 -207 l25 0 q150 121 159 121 q23 -3 23 -24 q-270 -312 -450 -377 l-62 0 l0 60 q18 36 196 110 q24 15 48 245 l-12 59 l0 62 q0 122 -12 365 l-13 0 q-215 -49 -316 -85 l-24 36 q48 49 389 146 q0 49 61 49 l36 0 l0 -24 l26 0 q22 0 110 36 Z" /><glyph glyph-name="uni52A1" unicode="&#x52a1;" d="M730 1551 l33 0 l0 -16 q-297 -900 -309 -1153 l-81 0 q-32 0 -32 33 l0 65 q40 489 356 1055 l33 16 ZM1104 1211 l64 -1 q33 -4 33 -32 q0 -37 -211 -389 l17 -1 q746 -457 746 -715 q0 -32 -31 -32 l-65 0 q-97 98 -130 98 l0 33 l81 -33 q-253 399 -666 616 q0 -22 -374 -583 q-139 -229 -162 -229 l-50 1 l0 16 q217 362 537 812 q-68 81 -196 81 l-31 0 l-33 -16 l0 32 l114 17 q41 1 195 -49 q226 316 226 358 l-15 0 q-89 0 -438 -98 l-18 0 l0 15 q290 98 407 99 ZM990 513 l17 -1 l0 -82 l-17 -112 q86 32 211 48 q70 -1 98 -147 q-120 -470 -195 -535 l-49 -1 q-36 0 -48 227 l33 0 q15 -84 15 -97 l16 0 q147 361 147 487 l-32 17 q-211 -33 -211 -98 q-118 -714 -163 -714 l-49 0 q-33 0 -33 32 q0 121 163 700 q-112 -33 -196 -33 l-48 0 l0 31 q293 0 293 212 q33 65 48 66 Z" /><glyph glyph-name="uni52A8" unicode="&#x52a8;" d="M1474 1474 l61 -12 l0 -12 l-61 -134 l12 -25 l-122 -402 q-11 -20 -11 -62 l0 -12 l109 0 q305 0 305 -195 q-139 -442 -341 -585 q-43 -12 -50 -12 q-89 0 -98 171 l26 0 q24 0 49 -98 q119 0 292 342 q60 115 60 219 l0 24 q0 65 -341 74 l-24 0 q-62 -198 -62 -269 q-40 0 -60 -280 q-24 0 -98 -500 l13 -25 q-21 -66 -61 -97 l-25 0 q-17 0 -36 37 q24 191 232 1120 l-13 0 q-97 -12 -243 -60 l-25 0 q-23 0 -23 25 l0 12 q0 23 328 109 q150 495 207 647 ZM791 1168 l25 0 q49 0 49 -84 q-12 0 -12 -13 q-85 9 -85 25 q-26 -10 -135 -25 l0 13 q-37 -21 -207 -37 q-23 11 -36 11 l0 38 q242 72 401 72 ZM999 963 l0 -25 q0 -11 -196 -87 q-104 -27 -133 -110 q-60 -99 -170 -449 l0 -50 l48 -11 q191 24 341 145 l-24 37 l0 61 q4 24 24 24 q61 0 134 -134 q11 1 74 -85 q-12 -37 -74 -37 q-51 0 -84 73 q-277 -170 -367 -170 l-110 1 q-28 5 -60 96 q0 31 146 391 q0 51 97 170 l-61 0 q-117 -36 -208 -36 l-48 0 l0 60 l671 136 Z" /><glyph glyph-name="uni52C7" unicode="&#x52c7;" d="M1199 1679 q83 -40 98 -85 q0 -39 -183 -207 q98 -35 98 -110 l-37 -24 l-61 -1 q0 32 -48 49 q-41 -11 -257 -36 l-11 24 l0 49 q0 24 170 60 q219 163 219 171 l0 25 q-104 0 -402 -86 l-60 0 l-73 49 l0 12 q0 25 304 61 q14 31 243 49 ZM700 1301 l37 0 l12 -60 q-36 -138 -36 -183 l12 0 q189 0 572 85 l170 0 q38 -13 85 -85 l0 -25 q0 -180 -219 -485 l-134 -123 l13 0 q0 12 12 12 l0 -49 q-37 -54 -37 -85 l12 0 q22 12 48 12 l25 0 q244 0 244 -183 l0 -36 q0 -320 -171 -584 q-12 1 -12 -37 l-48 -1 q-73 26 -73 184 l0 73 q3 25 24 25 q30 0 61 -135 q122 187 122 463 q0 12 12 12 q0 134 -171 134 l-13 0 q-113 0 -145 -267 l-134 -573 l-61 -13 l-12 0 l-24 13 q169 669 169 779 l-23 -13 l-61 0 q-3 -36 -219 -84 l-24 0 q-20 -147 -61 -147 q-110 29 -110 329 l0 97 q0 383 36 475 q0 12 -12 12 q76 463 134 463 ZM1066 985 l0 -147 l72 0 q74 -7 74 -36 l0 -24 q-146 -11 -146 -122 l0 -11 q92 30 133 96 l25 0 q23 -29 23 -48 q0 -31 -169 -133 q-9 -74 -24 -74 q12 -24 12 -37 q0 -134 -74 -159 l-36 50 l0 97 q0 12 12 12 q-12 24 -12 37 q-97 -49 -135 -49 l-36 0 q-24 1 -24 25 l0 24 q0 30 207 97 l-12 85 l0 37 l-12 0 q-27 0 -159 -49 l-36 0 l0 49 q0 45 219 109 l0 146 l-12 25 q-114 -15 -147 -37 q-83 13 -109 24 q-25 -97 -37 -97 q0 -11 12 -11 l-35 -343 q0 -12 12 -12 l-12 -84 l0 -110 q0 -146 35 -146 l86 -12 q25 29 341 133 q0 115 85 135 l0 12 q-49 0 -49 36 l0 25 q199 132 268 366 q49 53 49 108 l0 73 q-24 0 -24 25 q-365 -40 -365 -85 Z" /><glyph glyph-name="uni52E4" unicode="&#x52e4;" d="M937 1670 l38 0 q0 -25 12 -25 q-50 -158 -62 -379 q122 25 159 25 l12 -24 l0 -36 q0 -24 -159 -61 q-24 -53 -24 -195 l0 -14 q88 0 97 -72 q-139 -50 -145 -110 q0 -19 -50 -38 l12 -72 l86 0 l74 12 q109 -29 109 -59 q0 -110 -147 -209 l0 -13 q98 -24 98 -48 l-24 -37 l-48 13 q-144 -25 -172 -86 l0 -98 l12 0 q27 0 134 12 q61 -15 61 -36 l0 -12 q-207 -46 -207 -86 l0 -109 q269 57 269 121 l24 13 q17 0 37 -36 l0 -25 q-103 -64 -146 -208 q-109 -167 -172 -171 q-87 0 -109 184 q-85 0 -85 -36 l-38 -1 q-17 0 -36 37 q0 20 159 97 q0 25 12 25 l-12 61 l0 37 l-171 0 q-12 22 -12 35 q160 62 170 62 l13 24 l0 86 l-13 0 q-46 -49 -97 -49 l-13 24 l0 37 q3 18 123 73 l23 245 q-93 0 -194 -87 q0 -238 36 -279 q0 -38 -48 -38 q-85 0 -85 476 q-13 0 -13 37 q0 164 146 232 q-12 22 -24 109 q12 67 12 111 l-24 11 q-52 0 -122 -24 l-25 12 l-48 -12 q-110 0 -110 73 l24 12 q317 0 317 62 q0 286 86 353 l12 0 q24 0 24 -36 q-36 -111 -36 -305 l-12 0 q12 -22 12 -49 q182 28 182 72 q25 336 98 392 ZM645 1133 l0 -135 q7 -73 36 -73 q30 0 134 24 q12 144 12 208 l-182 -24 ZM1535 937 l25 0 q36 0 36 -48 q-122 -222 -122 -353 l12 -1 l184 36 l0 -12 q23 12 35 12 q143 0 160 -110 l0 -23 q0 -28 -12 -49 l12 -25 q-204 -739 -269 -781 l-24 0 q-58 0 -74 305 l14 0 q-26 50 -26 74 l12 72 l-12 25 q12 24 12 37 l-12 48 q12 24 12 38 l26 0 q0 -26 36 -86 l-13 -62 q13 -67 13 -98 l-13 0 l13 -23 l0 -12 q0 -13 -13 -13 q48 -97 61 -97 q172 525 172 682 l-13 0 q-9 0 -73 13 q-257 0 -257 -110 q-49 -105 -133 -769 q0 -12 12 -11 l-12 -61 l0 -110 q0 -29 -61 -38 q-19 50 -37 50 q72 702 134 963 l-12 0 q-89 -18 -134 -48 l-49 0 q-25 0 -25 24 l0 24 q53 47 256 123 q122 414 159 414 ZM621 768 l-62 12 l-12 -1 q-21 0 -36 -73 l12 -73 q0 -13 -12 -13 q12 -24 12 -37 l12 0 q194 50 194 74 l0 170 l-23 0 q-85 -47 -85 -59 ZM815 571 l0 -36 q0 -28 -12 -49 q12 -22 12 -48 l0 -38 l24 0 q157 154 159 183 q-36 0 -36 13 q-116 -25 -147 -25 ZM815 -173 q12 -48 12 -84 l12 0 q16 0 98 122 q12 -1 12 11 l-12 1 q-45 -1 -122 -50 Z" /><glyph glyph-name="uni5317" unicode="&#x5317;" d="M1208 1209 l58 0 l19 -232 l0 -250 q77 0 251 154 l20 0 q142 0 154 -58 q0 -49 -367 -174 l-58 0 l0 -192 q0 -150 367 -213 l116 20 q116 -49 116 -174 q-20 0 -20 -19 l-231 19 q-64 0 -367 -97 l0 39 q159 97 193 97 l0 19 q-270 91 -270 251 l0 521 q0 96 19 289 ZM707 1035 q154 -85 154 -193 l0 -308 l-19 -193 l19 0 q174 96 231 96 q-559 -540 -656 -540 l-19 0 q-38 0 -38 39 l0 19 q52 78 385 347 q-19 132 -19 212 q-245 -115 -289 -115 l-77 0 q-39 0 -39 38 l0 20 q6 29 386 173 l19 193 l0 58 q0 18 -38 154 Z" /><glyph glyph-name="uni533A" unicode="&#x533a;" d="M795 1267 l49 0 l0 -33 l-49 0 l0 -15 l-15 -163 q368 114 406 146 l48 0 l0 -48 q-290 -102 -454 -131 q-50 -420 -50 -697 q0 -276 50 -276 l0 96 l32 0 q0 -25 65 -210 l0 -17 q0 -117 -97 -130 q-119 0 -163 389 l0 180 q0 341 65 651 l-50 -1 l0 33 q83 0 83 80 q35 146 80 146 ZM1283 845 l16 0 l0 -33 q-65 -97 -113 -243 l291 -373 l0 -18 q0 -32 -32 -32 l-32 0 l-260 309 l-16 0 q-89 -341 -114 -341 l-48 0 l-17 64 q0 53 130 374 q-22 0 -195 197 l0 16 l16 -2 q29 0 211 -145 q62 155 163 227 ZM1445 17 l17 -32 q0 -82 -439 -82 l-17 0 l0 33 q0 44 439 81 Z" /><glyph glyph-name="uni5341" unicode="&#x5341;" d="M1021 1190 q198 0 187 -410 q306 49 517 49 l97 0 q50 -7 50 -49 q0 -35 -74 -74 l-49 0 q-292 0 -541 -73 q-31 -796 -113 -796 q-74 24 -74 148 l-10 623 q-274 -25 -615 -105 q-130 32 -173 103 l75 24 l98 3 l99 20 q381 79 540 101 l11 313 l-25 123 Z" /><glyph glyph-name="uni5347" unicode="&#x5347;" d="M1343 1485 q0 -19 70 -56 q14 -260 14 -380 l0 -224 l140 13 l43 0 q20 0 42 -42 l0 -28 q0 -41 -211 -98 l0 -14 q43 -723 43 -1098 q-22 -56 -43 -56 l-42 0 q-52 0 -70 296 l27 0 l0 -29 l14 0 l-41 872 l-367 -84 l0 -98 q0 -343 -112 -492 l-42 0 q-32 0 -56 97 q15 77 15 127 l0 14 l27 0 q14 -77 14 -113 q50 0 85 352 l0 57 l14 28 l-14 0 q-231 -43 -296 -43 l-70 0 q-73 0 -85 43 l0 14 q0 20 155 113 l14 -29 q-22 0 -56 -56 q66 0 352 85 l0 336 q5 29 28 29 q27 -5 27 -29 l0 -322 q352 88 352 112 l0 351 q0 113 15 296 q-15 27 -15 43 l29 13 ZM1033 1317 l42 0 l0 -15 q-91 -169 -366 -267 l-27 0 q-29 0 -29 28 l0 43 q0 19 43 41 l28 -14 q179 81 309 184 Z" /><glyph glyph-name="uni534F" unicode="&#x534f;" d="M573 1520 l36 0 q18 0 36 -35 q-36 -252 -60 -524 l12 0 q105 39 268 61 l24 -37 q0 -42 -280 -97 q-56 0 -109 -890 q11 0 48 -73 q-17 -267 -61 -267 l-12 0 q-63 0 -73 36 l0 145 q0 118 61 977 l-25 -1 q-36 -22 -220 -86 q-48 19 -48 37 l0 24 q317 113 317 146 q52 479 86 584 ZM1340 1180 l36 -49 q-49 -253 -49 -293 l134 0 q195 0 195 -219 l0 -23 q0 -115 -36 -268 q21 0 170 -172 q135 -160 135 -242 q-17 -61 -86 -61 q-37 0 -98 194 q-119 135 -133 135 l-26 0 q-139 -601 -206 -646 q-61 0 -61 61 q-12 29 -24 121 q12 20 12 61 q-36 12 -36 74 l0 96 l24 0 q41 -31 73 -170 l25 0 q121 452 121 514 q-61 32 -61 95 q12 23 12 37 l86 0 l24 159 l-12 73 l12 1 q-34 108 -207 108 q-87 0 -134 -572 q-25 -115 -73 -536 q12 -19 12 -74 l-61 -24 q-61 20 -61 73 q37 146 147 1072 l-12 0 l-196 -60 q-112 -49 -134 -49 l-12 0 q0 12 -12 35 q2 69 402 184 q38 365 97 365 l13 0 ZM900 425 l50 0 q-114 -287 -146 -476 q61 -15 61 -35 l0 -13 q-35 -77 -86 -109 l-24 -1 q-61 32 -61 98 q0 162 171 511 l35 25 Z" /><glyph glyph-name="uni5355" unicode="&#x5355;" d="M1115 1705 q48 -19 48 -37 q-35 0 -73 -353 q-16 -135 -110 -135 q65 525 123 525 l12 0 ZM749 1668 q17 0 37 -37 l0 -110 q57 -234 85 -291 q-12 -49 -50 -50 q-77 1 -133 391 l0 86 l61 11 ZM530 1168 l48 0 q24 -4 24 -24 q0 -161 26 -268 q-13 -21 -13 -50 q36 -362 85 -424 l0 -26 q-24 -31 -24 -49 l-37 1 q-87 -1 -121 608 l0 171 l12 61 ZM1213 1156 q231 -55 231 -170 l0 -98 q-89 -192 -134 -243 l36 -50 q0 -31 -110 -48 q-87 -109 -219 -145 l0 -171 l12 -1 q494 85 683 146 l25 0 q24 -4 24 -25 l0 -24 q-83 -49 -732 -183 q-12 -23 -12 -36 q0 -24 12 -25 q-12 -63 -12 -72 q12 -245 12 -269 l-12 -48 q12 -22 12 -61 l-12 0 l12 -26 l-24 -158 l12 -72 l-37 -26 l-49 0 q-17 0 -36 36 l0 26 q40 93 50 304 l-26 403 q-117 -12 -401 -98 q-24 12 -38 13 q0 -24 -24 -25 l-110 0 l-12 60 l37 25 l73 0 l487 110 q-12 165 -12 244 q-98 -16 -182 -49 l-12 0 q-25 30 -25 50 q0 36 219 97 l12 84 l0 86 l-60 0 q-14 0 -134 -24 l-12 24 l0 37 q46 40 206 84 q0 26 14 26 l-14 24 l0 109 q0 25 -24 25 q-103 0 -219 -146 l-12 0 q-25 0 -37 73 q0 122 464 195 q44 12 110 12 ZM1017 1035 l12 -111 q-12 -23 -12 -35 q12 -63 49 -63 l24 12 q40 -23 73 -23 l0 -37 q-5 -24 -60 -49 l-74 12 q-12 -84 -24 -85 q12 -73 24 -73 q181 0 257 195 q7 0 72 158 q0 122 -195 122 l-85 0 q-61 -2 -61 -23 Z" /><glyph glyph-name="uni5367" unicode="&#x5367;" d="M450 1485 l60 0 q18 0 37 -37 l0 -25 q-41 -44 -73 -206 l24 0 q261 84 317 84 l84 -24 q0 -54 -96 -109 q48 -92 48 -183 q184 -17 184 -61 l0 -12 q0 -83 -148 -244 q12 0 12 -12 l86 12 l24 0 l0 -12 q0 -77 -133 -98 q-98 1 -98 -108 l0 -184 q25 0 207 49 l38 0 l0 -25 q0 -67 -245 -121 q-22 -26 -170 -61 q0 -9 -61 -38 l-37 0 q0 22 -24 62 q3 46 182 109 q0 55 13 158 q-13 67 -13 98 l-24 0 q-146 -48 -158 -48 q-23 11 -36 11 l0 75 q0 19 182 60 q215 165 281 267 l0 13 l-14 0 q-52 0 -401 -98 l-24 0 l-12 50 q46 45 267 108 l12 25 l0 37 q-3 101 -73 182 q-218 -66 -218 -109 q-38 -126 -61 -439 l11 -23 q0 -28 -11 -50 q11 -103 11 -170 q0 -36 -11 -37 l11 -59 l0 -50 q0 -148 37 -268 l0 -62 q0 -29 -85 -36 q-73 66 -73 390 l0 109 l12 0 q0 12 -12 12 l12 62 q0 11 -12 11 l12 61 q0 273 49 549 q-13 21 -13 49 q37 0 85 280 q21 0 38 86 ZM1314 1399 q74 0 74 -146 q22 -76 60 -573 q367 -71 367 -183 q-14 -48 -74 -48 q-113 109 -293 109 q-12 -23 -12 -37 q0 -12 12 -12 l-12 -60 l0 -196 q0 -172 -24 -304 q12 -24 12 -37 l-12 -23 q0 -13 12 -37 q-12 -104 -12 -171 l0 -85 q0 -24 -24 -25 l-13 0 q-65 0 -85 48 q49 549 49 792 l0 135 l-37 0 l-36 -25 l-37 0 q-36 14 -36 74 q31 61 97 61 l36 0 l0 37 q0 458 -60 657 q9 37 48 49 Z" /><glyph glyph-name="uni5374" unicode="&#x5374;" d="M771 1464 l66 0 q40 -13 40 -78 l0 -144 l13 -92 l157 13 l27 -40 l0 -38 q0 -49 -197 -80 l0 -289 l-13 -26 q171 26 223 66 l52 0 q71 0 92 -53 l0 -13 q0 -26 -394 -78 q0 -20 -131 -40 l12 -65 l0 -66 q0 -87 -104 -250 l13 0 q209 106 316 106 q-40 118 -40 157 q26 14 40 14 q262 -225 262 -381 l0 -13 q0 -19 -40 -40 l-38 0 q-21 0 -119 171 q-48 -37 -472 -197 q-106 13 -106 104 q224 339 224 422 l0 12 l-14 0 q-271 -52 -354 -52 q-78 13 -78 40 q0 27 550 144 q-26 47 -26 104 l0 210 q-146 -39 -183 -39 q-78 0 -106 79 q302 75 302 104 l0 275 l13 27 q-13 0 -13 13 l26 13 ZM1506 1005 q47 0 53 -158 l132 13 l131 0 q65 -29 65 -117 q-82 -682 -236 -682 l-39 0 l-66 51 l0 -117 q0 -209 -53 -669 l-27 0 q-39 377 -39 420 q13 366 26 525 q-26 43 -26 79 l0 13 l26 -13 l0 379 l-117 0 q-27 0 -27 27 q0 18 157 78 q0 171 40 171 ZM1559 756 l0 -538 q0 -21 53 -53 l39 0 q144 382 144 604 l-144 0 l-92 -13 Z" /><glyph glyph-name="uni5386" unicode="&#x5386;" d="M1370 1467 l12 -25 l0 -23 q-333 -77 -573 -146 q-220 -339 -220 -721 q-60 -289 -60 -633 q0 -187 60 -231 q-6 -98 -36 -98 q-98 0 -98 207 l0 110 q0 12 13 12 q-13 24 -13 37 q0 353 110 963 l97 292 l0 12 l-11 0 l-122 -36 l-26 0 q-17 0 -48 48 q13 30 330 110 q83 59 585 122 ZM1199 1053 l37 1 l11 -62 q-35 -83 -73 -231 q13 -1 13 -13 l122 12 l122 0 q208 -14 208 -146 q0 -260 -234 -792 l-48 0 q-59 0 -133 280 q-17 0 -37 85 q12 24 12 36 q-25 1 -25 26 l0 73 l38 -1 q24 -116 133 -377 l37 0 q195 498 195 608 l0 38 q0 109 -220 109 q-219 -21 -219 -97 q-98 -375 -146 -744 l12 -24 q-24 -51 -24 -74 l-50 0 q-17 0 -35 37 l158 817 l0 12 l-13 0 q-35 -24 -329 -109 q-23 12 -36 12 l0 49 l414 146 l110 329 Z" /><glyph glyph-name="uni538B" unicode="&#x538b;" d="M1247 1399 q57 -24 62 -48 q0 -18 -62 -50 l-48 12 l-255 -36 l-147 0 q0 -27 -48 -36 q-152 -307 -219 -987 q0 -41 -13 -208 q13 -116 13 -231 q48 -6 48 -36 q-17 -122 -48 -122 l-25 0 q-73 44 -73 354 q0 431 171 1024 l-25 -1 q0 45 85 183 l0 24 q-85 0 -182 -38 q-61 17 -61 38 l0 12 q66 60 292 60 q122 26 122 49 l61 -11 q304 48 352 48 ZM1163 924 q36 -12 36 -24 q0 -55 13 -269 q135 49 219 62 l12 -25 q-12 -45 -231 -109 q-13 -192 -13 -281 l13 -48 l-13 -25 l13 -73 l0 -36 q0 -12 -13 -12 l13 -25 q-13 -66 -13 -110 q0 -24 37 -23 q66 -1 231 -13 l62 12 q23 -12 35 -12 l0 -48 l-170 -38 q-107 12 -134 12 q-116 -12 -134 -24 l-60 12 q-8 0 -159 -12 q-24 12 -37 12 l0 38 q0 38 244 60 l0 98 q0 11 12 11 l-12 25 l0 25 q0 36 12 36 l-12 62 l0 267 l-12 60 q-110 -36 -232 -60 l-23 12 q-133 -48 -159 -48 l-13 24 l0 12 q37 72 305 86 q0 36 134 48 q12 183 12 268 q0 44 37 73 ZM1467 290 l62 0 q145 -88 145 -170 q0 -24 -24 -23 l-12 -1 q-164 122 -171 146 l0 48 Z" /><glyph glyph-name="uni539A" unicode="&#x539a;" d="M1105 1519 l65 0 q33 -3 33 -31 q0 -23 -310 -99 q-162 -189 -276 -796 l-33 -438 l18 -65 q-18 -86 -18 -98 q11 -276 66 -276 l32 0 l0 -65 q0 -88 -65 -114 l-15 0 q-83 0 -83 294 l0 275 q0 796 277 1283 l-16 1 q-226 -50 -276 -50 l0 33 q0 49 601 146 ZM1349 1276 q163 -21 163 -130 q-81 -439 -180 -440 l-81 0 q-33 0 -33 33 l0 17 q114 0 114 65 l-32 0 q-73 0 -342 -82 q-48 82 -145 504 l32 17 l48 0 q65 -191 131 -439 q152 66 243 66 l82 -18 q27 39 98 244 q0 98 -131 98 q-77 -49 -243 -49 l-98 0 l0 49 l374 65 ZM1267 1032 l49 0 q33 -5 33 -32 q0 -39 -244 -83 l0 18 q-32 -18 -49 -18 q-32 18 -49 18 l0 65 q185 32 260 32 ZM1218 675 q75 -31 82 -66 q0 -92 -64 -178 l0 -33 q97 -240 178 -242 q86 -34 178 -34 l0 -32 q0 -33 -195 -48 q-51 -342 -227 -342 q-182 65 -195 113 l0 18 l16 0 q39 0 147 -50 q151 0 162 228 q-13 65 -33 65 q-299 16 -374 16 l-15 32 q0 27 97 65 l292 -32 q-129 185 -129 243 q98 183 98 195 l-18 0 q-114 0 -276 -32 l-16 32 l0 16 q252 66 292 66 Z" /><glyph glyph-name="uni539F" unicode="&#x539f;" d="M1291 1370 l12 -25 l0 -24 q-427 -65 -427 -97 q-279 -1086 -279 -1488 l-25 -12 l-37 0 q-8 0 -36 36 q0 423 317 1439 q12 0 24 36 q-218 -39 -305 -98 l-12 0 q0 91 219 135 q365 98 549 98 ZM1084 1247 l37 0 q0 -13 12 -36 q-81 -303 -232 -305 l0 -24 q312 110 561 110 q55 0 72 -123 q-131 -450 -207 -450 l-24 0 q-65 0 -86 49 l14 0 q20 -13 48 -13 q0 14 12 37 l-12 0 q-74 0 -74 -49 q40 -256 50 -255 l-12 -25 l0 -38 q0 -122 12 -303 q-12 -86 -38 -86 l-23 0 q-70 0 -135 146 l13 0 q74 -60 85 -60 q0 30 12 182 q0 192 -36 451 q-118 -24 -171 -24 q-23 12 -36 12 q0 -49 -38 -49 q-48 8 -48 98 l0 207 q0 85 12 268 l36 0 q0 -48 26 -48 q104 137 170 328 ZM914 834 l0 -172 q207 86 413 86 l14 0 l0 -37 q-427 -65 -427 -109 q12 -107 12 -122 l24 12 l12 0 l0 -24 q171 13 171 61 q40 0 61 -12 q138 0 182 133 q73 184 73 232 l0 49 l-48 0 q-169 0 -487 -97 ZM998 297 l37 0 l0 -48 q0 -110 -61 -330 l12 -25 q-46 -202 -72 -206 l-26 0 q-29 1 -36 48 q0 99 146 561 ZM1267 200 l86 0 q148 0 243 -342 l0 -24 q0 -25 -24 -24 l-38 -1 q-31 0 -85 244 q-74 134 -170 134 q0 -12 -12 -12 l0 25 Z" /><glyph glyph-name="uni53BB" unicode="&#x53bb;" d="M1067 1480 q68 0 90 -421 q218 74 275 74 l18 0 q26 0 55 -56 l0 -18 q0 -54 -348 -146 l0 -365 l-17 -36 l17 0 q370 91 457 91 l19 -38 l0 -17 q-48 -78 -622 -201 q0 -24 -255 -512 l36 0 q253 0 676 238 l-73 127 q7 38 37 38 q214 -195 292 -566 q0 -37 -36 -37 l-37 0 q-38 25 -146 365 l-19 0 q-320 -293 -675 -293 q-138 0 -183 93 q0 101 274 547 l-18 0 q-125 -18 -201 -18 l-110 0 q-201 0 -201 55 q0 14 55 54 l91 -18 q103 0 603 73 l0 19 q-91 0 -91 53 l0 312 q-172 -37 -274 -37 q-26 0 -54 55 l0 36 q328 66 328 110 l0 55 q0 105 19 292 q-19 32 -19 73 l37 19 Z" /><glyph glyph-name="uni53C8" unicode="&#x53c8;" d="M1374 1170 l13 -2 q53 -26 53 -98 l0 -13 q-80 -311 -266 -798 q491 -432 491 -555 l0 -41 q0 -19 -52 -47 l-53 7 q-44 20 -133 291 q-167 194 -294 283 q-164 -356 -398 -333 q-306 81 -306 417 l0 52 q0 174 240 150 l39 -4 q130 -14 359 -142 q94 255 227 708 l-14 1 q-429 -89 -491 -83 l-41 4 q-20 2 -40 43 l0 26 q5 28 27 26 q4 -28 26 -30 q492 149 613 138 ZM469 342 l0 -93 q62 -298 213 -313 l53 -5 q169 -17 306 341 q-183 138 -426 163 q-146 14 -146 -93 Z" /><glyph glyph-name="uni53CB" unicode="&#x53cb;" d="M1158 1524 q24 -6 24 -26 q-86 -77 -146 -304 l0 -26 q47 0 389 98 l12 0 q25 -4 25 -24 q0 -63 -414 -158 l-49 1 q-98 -272 -220 -940 l-48 -390 l12 -26 q0 -23 -24 -84 q24 -63 24 -98 l-24 -12 l-38 0 l-36 110 q9 158 24 158 q0 12 -11 12 q0 209 231 1219 l-12 0 q-164 -48 -268 -60 q-74 0 -74 72 q21 30 220 38 q195 31 195 110 q99 328 208 330 ZM1352 767 l0 -12 l25 12 q48 -17 73 -98 l-13 -24 l13 -26 q-39 -201 -196 -511 l0 -23 q306 -308 306 -356 l0 -12 q0 -17 -37 -36 l-36 0 q0 48 -293 293 l-12 0 q-27 -99 -159 -231 q-13 0 -36 -14 q-135 36 -135 86 l0 37 q4 24 25 24 l85 -73 q114 101 171 243 q-168 145 -256 196 q-12 21 -12 48 q0 18 36 38 l49 0 q186 -137 232 -184 l12 0 q170 403 170 513 q-36 12 -36 24 q-86 -7 -341 -208 l-25 0 q0 140 354 282 q24 12 36 12 Z" /><glyph glyph-name="uni53CD" unicode="&#x53cd;" d="M1224 1449 q54 -16 85 -74 q-17 -48 -110 -48 q-40 24 -73 24 l-12 0 q-199 0 -377 -670 q-86 -437 -86 -842 q24 -129 24 -170 l0 -24 q0 -18 -36 -37 l-12 0 q-18 0 -62 61 l0 342 q0 315 159 937 q98 229 158 342 l-12 0 q-183 -60 -231 -60 l-74 0 q-24 0 -24 25 q0 36 281 96 q158 61 402 98 ZM1247 803 l86 0 q17 0 62 -60 l0 -13 q0 -129 -196 -476 q220 -318 281 -341 q73 -43 73 -109 q0 -61 -73 -61 q-80 62 -268 316 q-8 0 -74 73 l-12 0 q-216 -267 -292 -267 q-93 32 -97 60 l0 24 l11 0 l86 -12 q145 133 232 268 l0 25 q-110 158 -196 158 l0 25 q0 17 37 36 l49 0 q84 0 158 -121 l36 0 q159 303 159 389 l-49 12 l-342 -98 l-11 0 q-25 0 -25 38 q0 65 365 134 Z" /><glyph glyph-name="uni53D6" unicode="&#x53d6;" d="M868 1162 q27 -7 27 -29 l133 0 l39 -4 q19 -1 40 -44 l0 -27 q0 -48 -186 -61 q53 -841 94 -924 q0 -14 -15 -12 q28 -109 28 -256 l-41 -22 l-13 1 q-43 5 -79 220 q-394 -202 -517 -226 l-27 43 l0 26 q146 117 146 132 l0 146 q0 267 66 816 l-239 -17 q-53 25 -53 46 q0 57 331 112 q8 53 40 50 l13 -1 q27 -2 27 -43 q160 11 160 76 l26 -2 ZM655 958 l0 -13 q0 -67 -13 -199 q29 -2 200 8 l0 132 l-14 94 q-129 -26 -173 -22 ZM1690 1033 q35 -3 54 -98 q0 -67 -199 -590 q278 -469 278 -532 q-16 -65 -39 -63 l-66 7 q-201 398 -253 464 q-118 -280 -225 -270 q-67 7 -67 126 l0 92 l28 -2 q7 -121 39 -124 q159 250 159 302 q-172 229 -185 233 q-13 -26 -13 -39 l-28 2 l0 54 q0 20 54 47 q73 -7 238 -195 q185 412 185 524 q-64 7 -569 -222 l-14 1 q-26 4 -26 31 l0 13 q196 141 557 249 l92 -10 ZM615 364 l14 -1 q178 48 226 44 l0 66 q0 67 -13 200 q-213 22 -213 -98 q0 -136 -14 -211 ZM615 272 l0 -265 q21 -3 280 104 q-27 157 -27 228 q-213 -71 -253 -67 Z" /><glyph glyph-name="uni53D7" unicode="&#x53d7;" d="M1310 1503 q89 0 97 -37 q0 -60 -171 -60 q-23 12 -36 12 q0 -25 -97 -37 q-22 12 -50 12 l-12 -25 l0 -48 q49 -190 49 -244 l-24 -12 l-61 0 q-49 200 -49 209 q0 97 -25 95 q-52 0 -110 -24 l-24 13 q-97 -24 -207 -25 l-48 1 l-12 48 q36 25 133 37 l0 -12 q33 12 256 48 l0 -13 q30 13 184 37 l0 -12 q48 25 73 26 l0 -12 q47 23 134 23 ZM809 1344 l12 -24 q0 -98 26 -354 l-26 -11 l-48 0 q-24 0 -24 24 l0 122 l-12 73 l12 25 q-12 21 -12 48 l12 0 l-12 25 q17 72 72 72 ZM1212 1344 l12 0 q33 0 48 -121 q-33 -196 -96 -194 l-38 -2 l0 37 q38 117 38 183 l0 62 q0 18 36 35 ZM492 966 l38 0 l36 -23 q-24 -316 -24 -646 l0 -35 l12 -75 l-12 -23 l12 -74 l0 -49 l-24 0 q-61 0 -74 49 l13 23 l-25 136 l12 60 l-12 85 q17 179 25 195 l-13 25 l36 352 ZM1541 893 q78 0 110 -59 l0 -62 q-162 -232 -231 -232 l11 -59 q-84 -243 -195 -391 l-60 -84 l0 -26 q113 -163 255 -303 q49 -27 49 -75 q-7 -49 -98 -49 q-32 69 -292 354 q-185 -195 -231 -194 q-41 -25 -73 -25 l-74 0 q-18 0 -61 72 l0 26 q4 23 25 23 l12 0 q6 -49 37 -49 l36 0 q63 1 195 123 q53 72 85 72 l0 12 q0 57 -244 355 l0 37 q0 134 513 217 q21 -11 48 -11 l12 0 q0 14 133 159 l38 48 l0 37 q-38 0 -86 12 q-202 -17 -219 -25 q-12 0 -12 13 l-207 -24 l0 13 l-24 -14 l-48 0 q-93 0 -317 -60 l-13 23 l0 49 q407 97 926 97 ZM847 382 l0 -37 q38 0 279 -280 q208 302 208 404 l-12 -1 l-25 12 q-79 0 -438 -97 l-12 -1 Z" /><glyph glyph-name="uni53D8" unicode="&#x53d8;" d="M1181 1547 l25 0 q122 -74 122 -245 q214 38 256 38 q23 -13 36 -13 l0 -36 q0 -28 -60 -37 l-26 12 q-97 -36 -182 -36 q-36 -183 -36 -280 l0 -24 q0 -83 12 -147 q-12 -63 -12 -145 l0 -74 q0 -86 -86 -87 l-24 37 q37 81 37 171 l0 219 q0 27 -13 49 l13 25 l-13 24 l36 183 l-60 0 q-110 0 -110 -158 q-25 -296 -37 -342 l49 -256 q151 48 268 48 q171 0 171 -133 q-128 -234 -269 -439 q78 -110 232 -268 q62 -52 62 -110 l-25 -12 l-13 0 q-12 0 -12 12 l-24 -12 q-280 284 -280 304 l-25 0 q-221 -203 -328 -255 q-64 0 -74 36 q0 15 135 73 q0 14 219 196 q-158 231 -244 231 l-12 0 l0 37 q3 23 24 23 l48 0 q62 0 245 -193 q37 0 195 255 q49 100 49 122 l0 36 q-62 0 -62 24 q-219 0 -499 -182 q-24 12 -38 12 l0 36 q53 74 184 122 q-48 50 -48 232 q0 29 23 500 l-11 1 l-477 -111 q-48 19 -48 36 l0 38 q597 106 597 182 q0 25 74 36 l0 -11 q-12 -22 -12 -49 l12 0 q98 0 98 85 q0 32 -86 209 l24 11 ZM1450 961 q93 0 145 -146 l-11 -24 l11 -24 q-13 -98 -48 -98 q-32 0 -61 170 q-10 4 -73 86 q0 18 37 36 ZM681 877 l61 0 q25 -5 25 -26 q-135 -66 -135 -328 l0 -61 q0 -188 49 -244 l0 -24 q0 -25 -23 -25 l-38 0 q-67 13 -85 304 q0 238 146 404 Z" /><glyph glyph-name="uni53F0" unicode="&#x53f0;" d="M913 1412 l49 0 q61 0 74 -49 q-32 -80 -281 -389 q-31 -32 -196 -268 l24 -1 q238 122 634 219 q74 40 74 62 q-61 0 -61 85 l0 13 l37 0 q328 -127 328 -233 l0 -48 q0 -25 -24 -24 l-24 -1 q-18 0 -36 73 q-136 97 -184 97 q-48 -69 -291 -121 q-124 -69 -318 -134 q-130 -98 -183 -98 l-73 1 q-17 0 -37 35 q0 55 305 440 l183 256 l0 12 l-25 36 l0 13 q5 24 25 24 ZM852 595 l48 0 l13 -60 q0 -14 -13 -14 q13 -44 13 -108 q22 20 244 73 q223 85 378 85 q85 0 134 -98 q-22 -107 -219 -389 q0 -25 11 -25 q38 -13 38 -73 q-20 0 -257 -61 q-98 9 -98 97 l0 24 l86 26 l97 0 q103 80 184 256 q36 0 72 145 q-17 13 -133 25 l-524 -147 l-13 0 l0 -415 q37 -163 37 -231 l0 -48 l-62 -12 l-11 0 q-47 82 -49 280 l12 24 q-12 22 -12 49 q0 13 12 13 q0 11 -12 11 l12 62 q0 92 -24 487 l36 24 Z" /><glyph glyph-name="uni540C" unicode="&#x540c;" d="M1553 1309 q147 0 147 -452 q23 -303 36 -792 q0 -317 -134 -317 q-27 0 -256 98 l0 11 l12 0 q36 -11 244 -11 q21 0 36 403 q-24 761 -24 902 q-8 98 -36 96 l-62 0 q-60 0 -865 -220 l-37 0 q0 29 599 208 q253 74 340 74 ZM420 1284 l24 0 l25 -195 q-13 -583 -13 -988 l0 -121 q0 -65 13 -208 q-31 -24 -49 -24 q-61 0 -61 184 l0 377 q0 296 61 975 ZM1236 931 q49 -18 49 -37 l0 -12 q0 -76 -537 -110 l-60 12 l0 25 l548 122 ZM798 674 q45 0 60 -157 q165 61 341 97 q74 -19 74 -86 q0 -26 -98 -304 q73 -1 73 -37 q0 -24 -171 -74 q0 -19 -182 -36 q0 -48 -24 -48 l-37 0 q-48 0 -61 268 l0 110 q-37 0 -37 23 l0 12 q0 26 37 26 l0 182 q4 24 25 24 ZM858 420 q0 -256 37 -257 q194 33 194 146 q68 108 74 207 l-12 0 q-73 1 -293 -96 Z" /><glyph glyph-name="uni540E" unicode="&#x540e;" d="M1249 1535 q49 -24 74 -25 l0 -37 q0 -33 -159 -73 q-146 -126 -366 -719 q-134 -446 -232 -1146 q48 0 48 -61 l0 -13 q-31 -133 -72 -132 l-25 -1 q-48 19 -48 85 q133 903 304 1414 q114 284 245 525 l-12 0 q-207 -12 -256 -37 l-26 12 l-145 -25 l-13 25 l0 13 q0 26 463 97 q102 41 158 85 q42 0 62 13 ZM1285 851 l98 0 l61 -12 l0 -49 l-61 -12 l-25 12 q-167 -85 -329 -85 q-67 12 -97 12 l0 38 q12 35 74 35 q12 0 35 -12 q202 37 244 73 ZM993 413 l0 -13 q0 -47 25 -134 l415 97 l0 -11 l23 11 l49 0 q109 0 121 -121 q-139 -231 -219 -231 q0 -40 135 -49 l0 -26 q0 -35 -123 -48 l-206 25 l0 49 q296 176 329 292 q-49 24 -49 36 q-334 -46 -464 -134 q0 -31 86 -427 q0 -24 -24 -24 l-25 0 q-38 0 -98 317 l13 0 q-49 156 -49 330 l0 24 q0 28 61 37 Z" /><glyph glyph-name="uni5413" unicode="&#x5413;" d="M1613 1460 l37 1 q20 -1 49 -50 l0 -24 l-121 0 q-184 -30 -184 -158 q-12 -283 -49 -391 q0 -12 13 -12 q-15 -108 -25 -133 q66 -36 245 -62 q178 -52 243 -122 l0 -23 q0 -25 -37 -25 q-62 0 -316 98 l-135 1 q0 -25 -12 -25 q0 -14 12 -12 l-12 -62 l0 -402 q0 -27 -12 -48 q9 -24 24 -219 l-12 -25 l24 -49 q-12 -121 -36 -121 l-36 0 q-43 0 -61 268 q12 84 23 84 l-11 26 l0 243 q0 12 11 12 l-11 24 q0 12 11 12 l-11 24 q11 172 11 293 l0 24 l-36 0 l0 50 q74 0 74 328 q12 0 12 328 q-240 -72 -475 -121 l-12 25 l0 36 q0 65 815 207 ZM298 1217 l49 0 l25 -74 q0 -37 12 -231 l11 0 q329 -9 329 -98 q25 -3 25 -24 l0 -24 q0 -195 -196 -403 q-26 -35 -60 -35 l-36 0 q0 -49 -37 -49 l-25 0 q-65 0 -109 500 l-12 -1 l12 87 l0 231 l12 121 ZM407 741 l25 -341 l13 2 q206 196 206 352 q-45 36 -85 36 l-85 0 q-61 0 -74 -49 Z" /><glyph glyph-name="uni5427" unicode="&#x5427;" d="M315 1195 l33 0 q32 -256 32 -406 l18 0 q154 65 340 80 q98 0 98 -113 q0 -87 -178 -309 l31 0 q32 17 49 17 l0 -33 q-27 -65 -113 -65 l-82 0 q-32 0 -32 32 q243 261 243 391 l0 15 l-48 0 q-326 -27 -326 -98 l-15 -79 q0 -62 48 -456 l-33 -16 l-32 0 q-48 0 -81 260 q33 332 33 698 l15 82 ZM1616 1146 q80 -25 80 -163 q-119 -438 -227 -438 q-294 -81 -374 -81 l-32 0 l-16 -114 q37 -391 260 -390 l16 -1 q216 0 422 196 l0 98 q82 -43 82 -131 q0 -174 -487 -259 l-49 0 q-273 0 -342 438 q17 251 65 586 l66 0 l-17 -83 l0 -259 q0 -32 49 -32 q41 0 292 80 l-33 49 l0 16 l33 -16 l17 2 q122 104 178 371 l0 82 l-48 0 q-93 0 -488 -114 l-31 0 l0 17 q4 32 31 32 l32 -16 q296 130 521 130 ZM1307 1016 l33 -66 q-29 -372 -82 -372 l-15 0 l0 15 q0 371 64 423 Z" /></font>
</defs>
</svg>
